<svg width="51" height="53" viewBox="0 0 51 53" fill="none" xmlns="http://www.w3.org/2000/svg">
<rect width="50.6268" height="52.0357" rx="25.3134" fill="#FFF7F1"/>
<path fill-rule="evenodd" clip-rule="evenodd" d="M21.8038 16.9633C23.3574 16.1704 24.587 15.3343 25.1162 14.8852L26.4853 16.4984C25.7965 17.0829 24.4178 18.0046 22.7657 18.8479C21.364 19.5632 19.7022 20.2551 18.0343 20.6307V26.056C18.0579 27.3777 18.4875 29.4868 19.6362 31.3346C20.766 33.1521 22.5695 34.6937 25.4037 35.0507L25.1393 37.1499C21.561 36.6992 19.2416 34.7076 17.8393 32.4516C16.4583 30.23 15.946 27.7304 15.9186 26.0827L15.9185 26.0739V18.8457L16.8175 18.7092C18.4644 18.459 20.2517 17.7555 21.8038 16.9633Z" fill="#F58024"/>
<path fill-rule="evenodd" clip-rule="evenodd" d="M28.5682 16.9484C26.9516 16.1717 25.6772 15.3521 25.1208 14.9013L23.7888 16.5452C24.5112 17.1305 25.939 18.0324 27.6519 18.8555C29.1151 19.5585 30.8467 20.2334 32.5893 20.6006V26.0309C32.5645 27.3511 32.1242 29.4594 30.9295 31.3083C29.7558 33.1248 27.8626 34.6872 24.8518 35.0493L25.1044 37.1499C28.8265 36.7024 31.242 34.7232 32.7066 32.4565C34.1477 30.2264 34.6761 27.7153 34.7049 26.0589L34.7051 26.0497V18.7998L33.799 18.6684C32.0511 18.415 30.1807 17.7232 28.5682 16.9484Z" fill="#F58024"/>
<path fill-rule="evenodd" clip-rule="evenodd" d="M30.1449 24.4352L22.7456 29.7206L20.5161 26.714L22.2156 25.4538L23.2071 26.7908L28.9151 22.7136L30.1449 24.4352Z" fill="#F58024"/>
</svg>
