<svg width="18" height="17" viewBox="0 0 18 17" fill="none" xmlns="http://www.w3.org/2000/svg">
<g opacity="0.4">
<path fill-rule="evenodd" clip-rule="evenodd" d="M9.81494 0.00799561L10.6285 0.0313769C11.7923 0.0648271 13.5201 0.443384 14.9795 1.49387C16.4769 2.57164 17.6554 4.33598 17.6554 7.00882V7.79963H9.81494V0.00799561ZM11.3966 1.69661V6.21802H16.0293C15.8342 4.54644 15.0216 3.47286 14.0556 2.77754C13.2091 2.16824 12.2249 1.8385 11.3966 1.69661Z" fill="black"/>
<path fill-rule="evenodd" clip-rule="evenodd" d="M3.49192 3.6103C4.91782 2.37381 6.68803 1.78941 8.04022 1.83346L8.80528 1.85838V8.68772H15.7749L15.7646 9.48875C15.7475 10.8093 15.1788 12.6036 13.9497 14.0602C12.6957 15.5465 10.7501 16.6832 8.03571 16.6116L8.01533 16.611L7.99501 16.6094C2.88063 16.2101 1.03729 12.065 0.95498 9.51482L0.954701 9.50617L0.954611 9.49752C0.926837 6.82297 2.03772 4.87134 3.49192 3.6103ZM2.53606 9.4723C2.60481 11.4855 4.05288 14.7048 8.09781 15.031C10.282 15.0829 11.774 14.1862 12.7409 13.0403C13.4849 12.1585 13.9158 11.1299 14.0909 10.2693H7.22366V3.4782C6.39178 3.63064 5.39366 4.05464 4.52811 4.80522C3.404 5.78001 2.51588 7.2953 2.53606 9.4723Z" fill="black"/>
</g>
</svg>
