<svg width="440" height="212" viewBox="0 0 440 212" fill="none" xmlns="http://www.w3.org/2000/svg">
<rect width="440" height="212" rx="10" fill="url(#paint0_linear_242_2128)" fill-opacity="0.55"/>
<rect opacity="0.8" width="440" height="212" rx="10" fill="url(#paint1_linear_242_2128)"/>
<path d="M45.0492 174.16C45.2625 174.16 45.4305 174.221 45.5532 174.344C45.6812 174.461 45.7452 174.619 45.7452 174.816V176H37.8092V175.344C37.8092 175.211 37.8358 175.072 37.8892 174.928C37.9478 174.779 38.0385 174.645 38.1612 174.528L41.6732 171.008C41.9665 170.709 42.2278 170.424 42.4572 170.152C42.6918 169.88 42.8865 169.611 43.0412 169.344C43.1958 169.077 43.3132 168.808 43.3932 168.536C43.4785 168.259 43.5212 167.968 43.5212 167.664C43.5212 167.387 43.4812 167.144 43.4012 166.936C43.3212 166.723 43.2065 166.544 43.0572 166.4C42.9132 166.256 42.7372 166.149 42.5292 166.08C42.3265 166.005 42.0972 165.968 41.8412 165.968C41.6065 165.968 41.3878 166.003 41.1852 166.072C40.9878 166.136 40.8118 166.229 40.6572 166.352C40.5025 166.469 40.3718 166.608 40.2652 166.768C40.1585 166.928 40.0785 167.104 40.0252 167.296C39.9345 167.541 39.8172 167.704 39.6732 167.784C39.5292 167.864 39.3212 167.883 39.0492 167.84L38.0092 167.656C38.0892 167.101 38.2438 166.616 38.4732 166.2C38.7025 165.779 38.9878 165.429 39.3292 165.152C39.6758 164.869 40.0705 164.659 40.5132 164.52C40.9612 164.376 41.4412 164.304 41.9532 164.304C42.4865 164.304 42.9745 164.384 43.4172 164.544C43.8598 164.699 44.2385 164.92 44.5532 165.208C44.8678 165.496 45.1132 165.843 45.2892 166.248C45.4652 166.653 45.5532 167.104 45.5532 167.6C45.5532 168.027 45.4892 168.421 45.3612 168.784C45.2385 169.147 45.0705 169.493 44.8572 169.824C44.6492 170.155 44.4038 170.475 44.1212 170.784C43.8385 171.093 43.5425 171.408 43.2332 171.728L40.6252 174.392C40.8758 174.317 41.1238 174.261 41.3692 174.224C41.6198 174.181 41.8572 174.16 42.0812 174.16H45.0492ZM47.4264 177.96C47.3304 177.88 47.2824 177.781 47.2824 177.664C47.2824 177.621 47.2958 177.573 47.3224 177.52C47.3544 177.467 47.3918 177.419 47.4344 177.376C47.4931 177.312 47.5651 177.232 47.6504 177.136C47.7358 177.045 47.8211 176.939 47.9064 176.816C47.9918 176.699 48.0691 176.568 48.1384 176.424C48.2131 176.285 48.2691 176.136 48.3064 175.976C48.1358 175.976 47.9811 175.947 47.8424 175.888C47.7038 175.824 47.5838 175.739 47.4824 175.632C47.3864 175.525 47.3091 175.4 47.2504 175.256C47.1971 175.112 47.1704 174.955 47.1704 174.784C47.1704 174.635 47.1971 174.496 47.2504 174.368C47.3091 174.235 47.3891 174.12 47.4904 174.024C47.5918 173.923 47.7144 173.845 47.8584 173.792C48.0024 173.733 48.1598 173.704 48.3304 173.704C48.5331 173.704 48.7091 173.741 48.8584 173.816C49.0131 173.885 49.1384 173.984 49.2344 174.112C49.3358 174.235 49.4104 174.379 49.4584 174.544C49.5118 174.704 49.5384 174.875 49.5384 175.056C49.5384 175.312 49.4984 175.581 49.4184 175.864C49.3438 176.147 49.2318 176.429 49.0824 176.712C48.9331 176.995 48.7464 177.269 48.5224 177.536C48.3038 177.803 48.0531 178.048 47.7704 178.272L47.4264 177.96ZM51.0964 167.656C51.1764 167.101 51.3311 166.616 51.5604 166.2C51.7898 165.779 52.0751 165.429 52.4164 165.152C52.7631 164.869 53.1578 164.659 53.6004 164.52C54.0484 164.376 54.5284 164.304 55.0404 164.304C55.5738 164.304 56.0538 164.381 56.4804 164.536C56.9124 164.685 57.2804 164.896 57.5844 165.168C57.8884 165.435 58.1204 165.749 58.2804 166.112C58.4458 166.475 58.5284 166.867 58.5284 167.288C58.5284 167.656 58.4858 167.981 58.4004 168.264C58.3204 168.541 58.2031 168.784 58.0484 168.992C57.8938 169.2 57.7018 169.376 57.4724 169.52C57.2431 169.664 56.9844 169.784 56.6964 169.88C57.3898 170.099 57.9071 170.432 58.2484 170.88C58.5898 171.328 58.7604 171.891 58.7604 172.568C58.7604 173.144 58.6538 173.653 58.4404 174.096C58.2271 174.539 57.9391 174.912 57.5764 175.216C57.2138 175.515 56.7924 175.741 56.3124 175.896C55.8378 176.051 55.3338 176.128 54.8004 176.128C54.2191 176.128 53.7124 176.061 53.2804 175.928C52.8484 175.795 52.4724 175.597 52.1524 175.336C51.8324 175.075 51.5604 174.755 51.3364 174.376C51.1124 173.997 50.9204 173.56 50.7604 173.064L51.6324 172.704C51.8618 172.608 52.0751 172.584 52.2724 172.632C52.4751 172.675 52.6218 172.781 52.7124 172.952C52.8084 173.139 52.9124 173.323 53.0244 173.504C53.1418 173.685 53.2804 173.848 53.4404 173.992C53.6004 174.131 53.7871 174.245 54.0004 174.336C54.2191 174.421 54.4778 174.464 54.7764 174.464C55.1124 174.464 55.4058 174.411 55.6564 174.304C55.9071 174.192 56.1151 174.048 56.2804 173.872C56.4511 173.696 56.5764 173.501 56.6564 173.288C56.7418 173.069 56.7844 172.851 56.7844 172.632C56.7844 172.355 56.7551 172.104 56.6964 171.88C56.6378 171.651 56.5151 171.456 56.3284 171.296C56.1418 171.136 55.8724 171.011 55.5204 170.92C55.1738 170.829 54.7071 170.784 54.1204 170.784V169.376C54.6058 169.371 55.0084 169.325 55.3284 169.24C55.6484 169.155 55.9018 169.037 56.0884 168.888C56.2804 168.733 56.4138 168.549 56.4884 168.336C56.5631 168.123 56.6004 167.888 56.6004 167.632C56.6004 167.088 56.4484 166.675 56.1444 166.392C55.8404 166.109 55.4351 165.968 54.9284 165.968C54.6938 165.968 54.4778 166.003 54.2804 166.072C54.0831 166.136 53.9044 166.229 53.7444 166.352C53.5898 166.469 53.4591 166.608 53.3524 166.768C53.2458 166.928 53.1658 167.104 53.1124 167.296C53.0218 167.541 52.9018 167.704 52.7524 167.784C52.6084 167.864 52.4031 167.883 52.1364 167.84L51.0964 167.656ZM68.3937 170.216C68.3937 171.224 68.2843 172.101 68.0657 172.848C67.8523 173.589 67.5537 174.203 67.1697 174.688C66.791 175.173 66.3403 175.536 65.8177 175.776C65.3003 176.011 64.7403 176.128 64.1377 176.128C63.535 176.128 62.975 176.011 62.4577 175.776C61.9457 175.536 61.5003 175.173 61.1217 174.688C60.743 174.203 60.447 173.589 60.2337 172.848C60.0203 172.101 59.9137 171.224 59.9137 170.216C59.9137 169.203 60.0203 168.325 60.2337 167.584C60.447 166.843 60.743 166.229 61.1217 165.744C61.5003 165.259 61.9457 164.899 62.4577 164.664C62.975 164.424 63.535 164.304 64.1377 164.304C64.7403 164.304 65.3003 164.424 65.8177 164.664C66.3403 164.899 66.791 165.259 67.1697 165.744C67.5537 166.229 67.8523 166.843 68.0657 167.584C68.2843 168.325 68.3937 169.203 68.3937 170.216ZM66.3537 170.216C66.3537 169.379 66.2923 168.685 66.1697 168.136C66.047 167.587 65.8817 167.149 65.6737 166.824C65.471 166.499 65.2363 166.272 64.9697 166.144C64.703 166.011 64.4257 165.944 64.1377 165.944C63.855 165.944 63.5803 166.011 63.3137 166.144C63.0523 166.272 62.8203 166.499 62.6177 166.824C62.415 167.149 62.2523 167.587 62.1297 168.136C62.0123 168.685 61.9537 169.379 61.9537 170.216C61.9537 171.053 62.0123 171.747 62.1297 172.296C62.2523 172.845 62.415 173.283 62.6177 173.608C62.8203 173.933 63.0523 174.163 63.3137 174.296C63.5803 174.424 63.855 174.488 64.1377 174.488C64.4257 174.488 64.703 174.424 64.9697 174.296C65.2363 174.163 65.471 173.933 65.6737 173.608C65.8817 173.283 66.047 172.845 66.1697 172.296C66.2923 171.747 66.3537 171.053 66.3537 170.216ZM69.7389 177.96C69.6429 177.88 69.5949 177.781 69.5949 177.664C69.5949 177.621 69.6083 177.573 69.6349 177.52C69.6669 177.467 69.7043 177.419 69.7469 177.376C69.8056 177.312 69.8776 177.232 69.9629 177.136C70.0483 177.045 70.1336 176.939 70.2189 176.816C70.3043 176.699 70.3816 176.568 70.4509 176.424C70.5256 176.285 70.5816 176.136 70.6189 175.976C70.4483 175.976 70.2936 175.947 70.1549 175.888C70.0163 175.824 69.8963 175.739 69.7949 175.632C69.6989 175.525 69.6216 175.4 69.5629 175.256C69.5096 175.112 69.4829 174.955 69.4829 174.784C69.4829 174.635 69.5096 174.496 69.5629 174.368C69.6216 174.235 69.7016 174.12 69.8029 174.024C69.9043 173.923 70.0269 173.845 70.1709 173.792C70.3149 173.733 70.4723 173.704 70.6429 173.704C70.8456 173.704 71.0216 173.741 71.1709 173.816C71.3256 173.885 71.4509 173.984 71.5469 174.112C71.6483 174.235 71.7229 174.379 71.7709 174.544C71.8243 174.704 71.8509 174.875 71.8509 175.056C71.8509 175.312 71.8109 175.581 71.7309 175.864C71.6563 176.147 71.5443 176.429 71.3949 176.712C71.2456 176.995 71.0589 177.269 70.8349 177.536C70.6163 177.803 70.3656 178.048 70.0829 178.272L69.7389 177.96ZM81.4249 170.216C81.4249 171.224 81.3156 172.101 81.0969 172.848C80.8836 173.589 80.5849 174.203 80.2009 174.688C79.8223 175.173 79.3716 175.536 78.8489 175.776C78.3316 176.011 77.7716 176.128 77.1689 176.128C76.5663 176.128 76.0063 176.011 75.4889 175.776C74.9769 175.536 74.5316 175.173 74.1529 174.688C73.7743 174.203 73.4783 173.589 73.2649 172.848C73.0516 172.101 72.9449 171.224 72.9449 170.216C72.9449 169.203 73.0516 168.325 73.2649 167.584C73.4783 166.843 73.7743 166.229 74.1529 165.744C74.5316 165.259 74.9769 164.899 75.4889 164.664C76.0063 164.424 76.5663 164.304 77.1689 164.304C77.7716 164.304 78.3316 164.424 78.8489 164.664C79.3716 164.899 79.8223 165.259 80.2009 165.744C80.5849 166.229 80.8836 166.843 81.0969 167.584C81.3156 168.325 81.4249 169.203 81.4249 170.216ZM79.3849 170.216C79.3849 169.379 79.3236 168.685 79.2009 168.136C79.0783 167.587 78.9129 167.149 78.7049 166.824C78.5023 166.499 78.2676 166.272 78.0009 166.144C77.7343 166.011 77.4569 165.944 77.1689 165.944C76.8863 165.944 76.6116 166.011 76.3449 166.144C76.0836 166.272 75.8516 166.499 75.6489 166.824C75.4463 167.149 75.2836 167.587 75.1609 168.136C75.0436 168.685 74.9849 169.379 74.9849 170.216C74.9849 171.053 75.0436 171.747 75.1609 172.296C75.2836 172.845 75.4463 173.283 75.6489 173.608C75.8516 173.933 76.0836 174.163 76.3449 174.296C76.6116 174.424 76.8863 174.488 77.1689 174.488C77.4569 174.488 77.7343 174.424 78.0009 174.296C78.2676 174.163 78.5023 173.933 78.7049 173.608C78.9129 173.283 79.0783 172.845 79.2009 172.296C79.3236 171.747 79.3849 171.053 79.3849 170.216ZM90.7062 170.216C90.7062 171.224 90.5968 172.101 90.3782 172.848C90.1648 173.589 89.8662 174.203 89.4822 174.688C89.1035 175.173 88.6528 175.536 88.1302 175.776C87.6128 176.011 87.0528 176.128 86.4502 176.128C85.8475 176.128 85.2875 176.011 84.7702 175.776C84.2582 175.536 83.8128 175.173 83.4342 174.688C83.0555 174.203 82.7595 173.589 82.5462 172.848C82.3328 172.101 82.2262 171.224 82.2262 170.216C82.2262 169.203 82.3328 168.325 82.5462 167.584C82.7595 166.843 83.0555 166.229 83.4342 165.744C83.8128 165.259 84.2582 164.899 84.7702 164.664C85.2875 164.424 85.8475 164.304 86.4502 164.304C87.0528 164.304 87.6128 164.424 88.1302 164.664C88.6528 164.899 89.1035 165.259 89.4822 165.744C89.8662 166.229 90.1648 166.843 90.3782 167.584C90.5968 168.325 90.7062 169.203 90.7062 170.216ZM88.6662 170.216C88.6662 169.379 88.6048 168.685 88.4822 168.136C88.3595 167.587 88.1942 167.149 87.9862 166.824C87.7835 166.499 87.5488 166.272 87.2822 166.144C87.0155 166.011 86.7382 165.944 86.4502 165.944C86.1675 165.944 85.8928 166.011 85.6262 166.144C85.3648 166.272 85.1328 166.499 84.9302 166.824C84.7275 167.149 84.5648 167.587 84.4422 168.136C84.3248 168.685 84.2662 169.379 84.2662 170.216C84.2662 171.053 84.3248 171.747 84.4422 172.296C84.5648 172.845 84.7275 173.283 84.9302 173.608C85.1328 173.933 85.3648 174.163 85.6262 174.296C85.8928 174.424 86.1675 174.488 86.4502 174.488C86.7382 174.488 87.0155 174.424 87.2822 174.296C87.5488 174.163 87.7835 173.933 87.9862 173.608C88.1942 173.283 88.3595 172.845 88.4822 172.296C88.6048 171.747 88.6662 171.053 88.6662 170.216ZM92.0514 177.96C91.9554 177.88 91.9074 177.781 91.9074 177.664C91.9074 177.621 91.9208 177.573 91.9474 177.52C91.9794 177.467 92.0168 177.419 92.0594 177.376C92.1181 177.312 92.1901 177.232 92.2754 177.136C92.3608 177.045 92.4461 176.939 92.5314 176.816C92.6168 176.699 92.6941 176.568 92.7634 176.424C92.8381 176.285 92.8941 176.136 92.9314 175.976C92.7608 175.976 92.6061 175.947 92.4674 175.888C92.3288 175.824 92.2088 175.739 92.1074 175.632C92.0114 175.525 91.9341 175.4 91.8754 175.256C91.8221 175.112 91.7954 174.955 91.7954 174.784C91.7954 174.635 91.8221 174.496 91.8754 174.368C91.9341 174.235 92.0141 174.12 92.1154 174.024C92.2168 173.923 92.3394 173.845 92.4834 173.792C92.6274 173.733 92.7848 173.704 92.9554 173.704C93.1581 173.704 93.3341 173.741 93.4834 173.816C93.6381 173.885 93.7634 173.984 93.8594 174.112C93.9608 174.235 94.0354 174.379 94.0834 174.544C94.1368 174.704 94.1634 174.875 94.1634 175.056C94.1634 175.312 94.1234 175.581 94.0434 175.864C93.9688 176.147 93.8568 176.429 93.7074 176.712C93.5581 176.995 93.3714 177.269 93.1474 177.536C92.9288 177.803 92.6781 178.048 92.3954 178.272L92.0514 177.96ZM103.737 170.216C103.737 171.224 103.628 172.101 103.409 172.848C103.196 173.589 102.897 174.203 102.513 174.688C102.135 175.173 101.684 175.536 101.161 175.776C100.644 176.011 100.084 176.128 99.4814 176.128C98.8788 176.128 98.3188 176.011 97.8014 175.776C97.2894 175.536 96.8441 175.173 96.4654 174.688C96.0868 174.203 95.7908 173.589 95.5774 172.848C95.3641 172.101 95.2574 171.224 95.2574 170.216C95.2574 169.203 95.3641 168.325 95.5774 167.584C95.7908 166.843 96.0868 166.229 96.4654 165.744C96.8441 165.259 97.2894 164.899 97.8014 164.664C98.3188 164.424 98.8788 164.304 99.4814 164.304C100.084 164.304 100.644 164.424 101.161 164.664C101.684 164.899 102.135 165.259 102.513 165.744C102.897 166.229 103.196 166.843 103.409 167.584C103.628 168.325 103.737 169.203 103.737 170.216ZM101.697 170.216C101.697 169.379 101.636 168.685 101.513 168.136C101.391 167.587 101.225 167.149 101.017 166.824C100.815 166.499 100.58 166.272 100.313 166.144C100.047 166.011 99.7694 165.944 99.4814 165.944C99.1988 165.944 98.9241 166.011 98.6574 166.144C98.3961 166.272 98.1641 166.499 97.9614 166.824C97.7588 167.149 97.5961 167.587 97.4734 168.136C97.3561 168.685 97.2974 169.379 97.2974 170.216C97.2974 171.053 97.3561 171.747 97.4734 172.296C97.5961 172.845 97.7588 173.283 97.9614 173.608C98.1641 173.933 98.3961 174.163 98.6574 174.296C98.9241 174.424 99.1988 174.488 99.4814 174.488C99.7694 174.488 100.047 174.424 100.313 174.296C100.58 174.163 100.815 173.933 101.017 173.608C101.225 173.283 101.391 172.845 101.513 172.296C101.636 171.747 101.697 171.053 101.697 170.216ZM113.019 170.216C113.019 171.224 112.909 172.101 112.691 172.848C112.477 173.589 112.179 174.203 111.795 174.688C111.416 175.173 110.965 175.536 110.443 175.776C109.925 176.011 109.365 176.128 108.763 176.128C108.16 176.128 107.6 176.011 107.083 175.776C106.571 175.536 106.125 175.173 105.747 174.688C105.368 174.203 105.072 173.589 104.859 172.848C104.645 172.101 104.539 171.224 104.539 170.216C104.539 169.203 104.645 168.325 104.859 167.584C105.072 166.843 105.368 166.229 105.747 165.744C106.125 165.259 106.571 164.899 107.083 164.664C107.6 164.424 108.16 164.304 108.763 164.304C109.365 164.304 109.925 164.424 110.443 164.664C110.965 164.899 111.416 165.259 111.795 165.744C112.179 166.229 112.477 166.843 112.691 167.584C112.909 168.325 113.019 169.203 113.019 170.216ZM110.979 170.216C110.979 169.379 110.917 168.685 110.795 168.136C110.672 167.587 110.507 167.149 110.299 166.824C110.096 166.499 109.861 166.272 109.595 166.144C109.328 166.011 109.051 165.944 108.763 165.944C108.48 165.944 108.205 166.011 107.939 166.144C107.677 166.272 107.445 166.499 107.243 166.824C107.04 167.149 106.877 167.587 106.755 168.136C106.637 168.685 106.579 169.379 106.579 170.216C106.579 171.053 106.637 171.747 106.755 172.296C106.877 172.845 107.04 173.283 107.243 173.608C107.445 173.933 107.677 174.163 107.939 174.296C108.205 174.424 108.48 174.488 108.763 174.488C109.051 174.488 109.328 174.424 109.595 174.296C109.861 174.163 110.096 173.933 110.299 173.608C110.507 173.283 110.672 172.845 110.795 172.296C110.917 171.747 110.979 171.053 110.979 170.216ZM122.3 170.216C122.3 171.224 122.191 172.101 121.972 172.848C121.759 173.589 121.46 174.203 121.076 174.688C120.697 175.173 120.247 175.536 119.724 175.776C119.207 176.011 118.647 176.128 118.044 176.128C117.441 176.128 116.881 176.011 116.364 175.776C115.852 175.536 115.407 175.173 115.028 174.688C114.649 174.203 114.353 173.589 114.14 172.848C113.927 172.101 113.82 171.224 113.82 170.216C113.82 169.203 113.927 168.325 114.14 167.584C114.353 166.843 114.649 166.229 115.028 165.744C115.407 165.259 115.852 164.899 116.364 164.664C116.881 164.424 117.441 164.304 118.044 164.304C118.647 164.304 119.207 164.424 119.724 164.664C120.247 164.899 120.697 165.259 121.076 165.744C121.46 166.229 121.759 166.843 121.972 167.584C122.191 168.325 122.3 169.203 122.3 170.216ZM120.26 170.216C120.26 169.379 120.199 168.685 120.076 168.136C119.953 167.587 119.788 167.149 119.58 166.824C119.377 166.499 119.143 166.272 118.876 166.144C118.609 166.011 118.332 165.944 118.044 165.944C117.761 165.944 117.487 166.011 117.22 166.144C116.959 166.272 116.727 166.499 116.524 166.824C116.321 167.149 116.159 167.587 116.036 168.136C115.919 168.685 115.86 169.379 115.86 170.216C115.86 171.053 115.919 171.747 116.036 172.296C116.159 172.845 116.321 173.283 116.524 173.608C116.727 173.933 116.959 174.163 117.22 174.296C117.487 174.424 117.761 174.488 118.044 174.488C118.332 174.488 118.609 174.424 118.876 174.296C119.143 174.163 119.377 173.933 119.58 173.608C119.788 173.283 119.953 172.845 120.076 172.296C120.199 171.747 120.26 171.053 120.26 170.216Z" fill="black" fill-opacity="0.86"/>
<path d="M39.8402 147.146H38.4822V137.115H39.8402V147.146ZM43.1786 141.084C43.3326 140.912 43.496 140.755 43.6686 140.615C43.8413 140.475 44.0233 140.356 44.2146 140.258C44.4106 140.156 44.616 140.079 44.8306 140.027C45.05 139.971 45.2856 139.943 45.5376 139.943C45.925 139.943 46.2656 140.009 46.5596 140.139C46.8583 140.265 47.1056 140.447 47.3016 140.685C47.5023 140.919 47.654 141.201 47.7566 141.532C47.8593 141.864 47.9106 142.23 47.9106 142.631V147.146H46.6576V142.631C46.6576 142.095 46.534 141.679 46.2866 141.385C46.044 141.087 45.673 140.937 45.1736 140.937C44.805 140.937 44.4596 141.026 44.1376 141.203C43.8203 141.381 43.5263 141.621 43.2556 141.924V147.146H42.0026V140.055H42.7516C42.929 140.055 43.0386 140.142 43.0806 140.314L43.1786 141.084ZM55.7349 140.055L52.8439 147.146H51.7239L48.8329 140.055H49.8479C49.9505 140.055 50.0345 140.081 50.0999 140.132C50.1652 140.184 50.2095 140.244 50.2329 140.314L52.0319 144.878C52.0879 145.051 52.1369 145.219 52.1789 145.382C52.2209 145.546 52.2605 145.709 52.2979 145.872C52.3352 145.709 52.3749 145.546 52.4169 145.382C52.4589 145.219 52.5102 145.051 52.5709 144.878L54.3909 140.314C54.4189 140.24 54.4655 140.179 54.5309 140.132C54.5962 140.081 54.6732 140.055 54.7619 140.055H55.7349ZM61.4322 142.827C61.4322 142.538 61.3902 142.274 61.3062 142.036C61.2269 141.794 61.1079 141.586 60.9492 141.413C60.7952 141.236 60.6062 141.101 60.3822 141.007C60.1582 140.909 59.9039 140.86 59.6192 140.86C59.0219 140.86 58.5482 141.035 58.1982 141.385C57.8529 141.731 57.6382 142.211 57.5542 142.827H61.4322ZM62.4402 146.152C62.2862 146.339 62.1019 146.502 61.8872 146.642C61.6726 146.778 61.4416 146.89 61.1942 146.978C60.9516 147.067 60.6996 147.132 60.4382 147.174C60.1769 147.221 59.9179 147.244 59.6612 147.244C59.1712 147.244 58.7186 147.163 58.3032 146.999C57.8926 146.831 57.5356 146.589 57.2322 146.271C56.9336 145.949 56.7002 145.553 56.5322 145.081C56.3642 144.61 56.2802 144.069 56.2802 143.457C56.2802 142.963 56.3549 142.501 56.5042 142.071C56.6582 141.642 56.8776 141.271 57.1622 140.958C57.4469 140.641 57.7946 140.394 58.2052 140.216C58.6159 140.034 59.0779 139.943 59.5912 139.943C60.0159 139.943 60.4079 140.016 60.7672 140.16C61.1312 140.3 61.4439 140.506 61.7052 140.776C61.9712 141.042 62.1789 141.374 62.3282 141.77C62.4776 142.162 62.5522 142.61 62.5522 143.114C62.5522 143.31 62.5312 143.441 62.4892 143.506C62.4472 143.572 62.3679 143.604 62.2512 143.604H57.5122C57.5262 144.052 57.5869 144.442 57.6942 144.773C57.8062 145.105 57.9602 145.382 58.1562 145.606C58.3522 145.826 58.5856 145.991 58.8562 146.103C59.1269 146.211 59.4302 146.264 59.7662 146.264C60.0789 146.264 60.3472 146.229 60.5712 146.159C60.7999 146.085 60.9959 146.005 61.1592 145.921C61.3226 145.837 61.4579 145.76 61.5652 145.69C61.6772 145.616 61.7729 145.578 61.8522 145.578C61.9549 145.578 62.0342 145.618 62.0902 145.697L62.4402 146.152ZM68.2127 141.224C68.1567 141.327 68.0704 141.378 67.9537 141.378C67.8837 141.378 67.8044 141.353 67.7157 141.301C67.627 141.25 67.5174 141.194 67.3867 141.133C67.2607 141.068 67.109 141.01 66.9317 140.958C66.7544 140.902 66.5444 140.874 66.3017 140.874C66.0917 140.874 65.9027 140.902 65.7347 140.958C65.5667 141.01 65.422 141.082 65.3007 141.175C65.184 141.269 65.093 141.378 65.0277 141.504C64.967 141.626 64.9367 141.759 64.9367 141.903C64.9367 142.085 64.988 142.237 65.0907 142.358C65.198 142.48 65.338 142.585 65.5107 142.673C65.6834 142.762 65.8794 142.841 66.0987 142.911C66.318 142.977 66.542 143.049 66.7707 143.128C67.004 143.203 67.2304 143.287 67.4497 143.38C67.669 143.474 67.865 143.59 68.0377 143.73C68.2104 143.87 68.348 144.043 68.4507 144.248C68.558 144.449 68.6117 144.692 68.6117 144.976C68.6117 145.303 68.5534 145.606 68.4367 145.886C68.32 146.162 68.1474 146.402 67.9187 146.607C67.69 146.808 67.41 146.967 67.0787 147.083C66.7474 147.2 66.3647 147.258 65.9307 147.258C65.436 147.258 64.988 147.179 64.5867 147.02C64.1854 146.857 63.8447 146.649 63.5647 146.397L63.8587 145.921C63.896 145.861 63.9404 145.814 63.9917 145.781C64.043 145.749 64.1084 145.732 64.1877 145.732C64.2717 145.732 64.3604 145.765 64.4537 145.83C64.547 145.896 64.659 145.968 64.7897 146.047C64.925 146.127 65.0884 146.199 65.2797 146.264C65.471 146.33 65.709 146.362 65.9937 146.362C66.2364 146.362 66.4487 146.332 66.6307 146.271C66.8127 146.206 66.9644 146.12 67.0857 146.012C67.207 145.905 67.2957 145.781 67.3517 145.641C67.4124 145.501 67.4427 145.352 67.4427 145.193C67.4427 144.997 67.389 144.836 67.2817 144.71C67.179 144.58 67.0414 144.47 66.8687 144.381C66.696 144.288 66.4977 144.209 66.2737 144.143C66.0544 144.073 65.828 144.001 65.5947 143.926C65.366 143.852 65.1397 143.768 64.9157 143.674C64.6964 143.576 64.5004 143.455 64.3277 143.31C64.155 143.166 64.015 142.988 63.9077 142.778C63.805 142.564 63.7537 142.305 63.7537 142.001C63.7537 141.731 63.8097 141.472 63.9217 141.224C64.0337 140.972 64.197 140.753 64.4117 140.566C64.6264 140.375 64.89 140.223 65.2027 140.111C65.5154 139.999 65.8724 139.943 66.2737 139.943C66.7404 139.943 67.158 140.018 67.5267 140.167C67.9 140.312 68.222 140.513 68.4927 140.769L68.2127 141.224ZM72.3163 147.258C71.7563 147.258 71.3247 147.102 71.0213 146.789C70.7227 146.477 70.5733 146.026 70.5733 145.438V141.098H69.7193C69.6447 141.098 69.5817 141.077 69.5303 141.035C69.479 140.989 69.4533 140.919 69.4533 140.825V140.328L70.6153 140.181L70.9023 137.99C70.9163 137.92 70.9467 137.864 70.9933 137.822C71.0447 137.776 71.11 137.752 71.1893 137.752H71.8193V140.195H73.8703V141.098H71.8193V145.354C71.8193 145.653 71.8917 145.875 72.0363 146.019C72.181 146.164 72.3677 146.236 72.5963 146.236C72.727 146.236 72.839 146.22 72.9323 146.187C73.0303 146.15 73.1143 146.11 73.1843 146.068C73.2543 146.026 73.3127 145.989 73.3593 145.956C73.4107 145.919 73.455 145.9 73.4923 145.9C73.5577 145.9 73.616 145.94 73.6673 146.019L74.0313 146.614C73.8167 146.815 73.5577 146.974 73.2543 147.09C72.951 147.202 72.6383 147.258 72.3163 147.258ZM79.8619 142.827C79.8619 142.538 79.8199 142.274 79.7359 142.036C79.6566 141.794 79.5376 141.586 79.3789 141.413C79.2249 141.236 79.0359 141.101 78.8119 141.007C78.5879 140.909 78.3336 140.86 78.0489 140.86C77.4516 140.86 76.9779 141.035 76.6279 141.385C76.2826 141.731 76.0679 142.211 75.9839 142.827H79.8619ZM80.8699 146.152C80.7159 146.339 80.5316 146.502 80.3169 146.642C80.1022 146.778 79.8712 146.89 79.6239 146.978C79.3812 147.067 79.1292 147.132 78.8679 147.174C78.6066 147.221 78.3476 147.244 78.0909 147.244C77.6009 147.244 77.1482 147.163 76.7329 146.999C76.3222 146.831 75.9652 146.589 75.6619 146.271C75.3632 145.949 75.1299 145.553 74.9619 145.081C74.7939 144.61 74.7099 144.069 74.7099 143.457C74.7099 142.963 74.7846 142.501 74.9339 142.071C75.0879 141.642 75.3072 141.271 75.5919 140.958C75.8766 140.641 76.2242 140.394 76.6349 140.216C77.0456 140.034 77.5076 139.943 78.0209 139.943C78.4456 139.943 78.8376 140.016 79.1969 140.16C79.5609 140.3 79.8736 140.506 80.1349 140.776C80.4009 141.042 80.6086 141.374 80.7579 141.77C80.9072 142.162 80.9819 142.61 80.9819 143.114C80.9819 143.31 80.9609 143.441 80.9189 143.506C80.8769 143.572 80.7976 143.604 80.6809 143.604H75.9419C75.9559 144.052 76.0166 144.442 76.1239 144.773C76.2359 145.105 76.3899 145.382 76.5859 145.606C76.7819 145.826 77.0152 145.991 77.2859 146.103C77.5566 146.211 77.8599 146.264 78.1959 146.264C78.5086 146.264 78.7769 146.229 79.0009 146.159C79.2296 146.085 79.4256 146.005 79.5889 145.921C79.7522 145.837 79.8876 145.76 79.9949 145.69C80.1069 145.616 80.2026 145.578 80.2819 145.578C80.3846 145.578 80.4639 145.618 80.5199 145.697L80.8699 146.152ZM87.1324 141.742C86.8991 141.43 86.6471 141.213 86.3764 141.091C86.1057 140.965 85.8024 140.902 85.4664 140.902C84.8084 140.902 84.3021 141.138 83.9474 141.609C83.5927 142.081 83.4154 142.753 83.4154 143.625C83.4154 144.087 83.4551 144.484 83.5344 144.815C83.6137 145.142 83.7304 145.413 83.8844 145.627C84.0384 145.837 84.2274 145.991 84.4514 146.089C84.6754 146.187 84.9297 146.236 85.2144 146.236C85.6251 146.236 85.9821 146.143 86.2854 145.956C86.5934 145.77 86.8757 145.506 87.1324 145.165V141.742ZM88.3784 136.835V147.146H87.6364C87.4591 147.146 87.3471 147.06 87.3004 146.887L87.1884 146.026C86.8851 146.39 86.5397 146.684 86.1524 146.908C85.7651 147.132 85.3171 147.244 84.8084 147.244C84.4024 147.244 84.0337 147.167 83.7024 147.013C83.3711 146.855 83.0887 146.624 82.8554 146.32C82.6221 146.017 82.4424 145.639 82.3164 145.186C82.1904 144.734 82.1274 144.213 82.1274 143.625C82.1274 143.103 82.1974 142.617 82.3374 142.169C82.4774 141.717 82.6781 141.325 82.9394 140.993C83.2007 140.662 83.5204 140.403 83.8984 140.216C84.2811 140.025 84.7104 139.929 85.1864 139.929C85.6204 139.929 85.9914 140.004 86.2994 140.153C86.6121 140.298 86.8897 140.501 87.1324 140.762V136.835H88.3784Z" fill="#FF7101"/>
<path d="M194.55 171.36H191.446V174.656H189.838V171.36H186.75V169.896H189.838V166.616H191.446V169.896H194.55V171.36ZM207.026 174.16C207.239 174.16 207.407 174.221 207.53 174.344C207.658 174.461 207.722 174.619 207.722 174.816V176H199.786V175.344C199.786 175.211 199.812 175.072 199.866 174.928C199.924 174.779 200.015 174.645 200.138 174.528L203.65 171.008C203.943 170.709 204.204 170.424 204.434 170.152C204.668 169.88 204.863 169.611 205.018 169.344C205.172 169.077 205.29 168.808 205.37 168.536C205.455 168.259 205.498 167.968 205.498 167.664C205.498 167.387 205.458 167.144 205.378 166.936C205.298 166.723 205.183 166.544 205.034 166.4C204.89 166.256 204.714 166.149 204.506 166.08C204.303 166.005 204.074 165.968 203.818 165.968C203.583 165.968 203.364 166.003 203.162 166.072C202.964 166.136 202.788 166.229 202.634 166.352C202.479 166.469 202.348 166.608 202.242 166.768C202.135 166.928 202.055 167.104 202.002 167.296C201.911 167.541 201.794 167.704 201.65 167.784C201.506 167.864 201.298 167.883 201.026 167.84L199.986 167.656C200.066 167.101 200.22 166.616 200.45 166.2C200.679 165.779 200.964 165.429 201.306 165.152C201.652 164.869 202.047 164.659 202.49 164.52C202.938 164.376 203.418 164.304 203.93 164.304C204.463 164.304 204.951 164.384 205.394 164.544C205.836 164.699 206.215 164.92 206.53 165.208C206.844 165.496 207.09 165.843 207.266 166.248C207.442 166.653 207.53 167.104 207.53 167.6C207.53 168.027 207.466 168.421 207.338 168.784C207.215 169.147 207.047 169.493 206.834 169.824C206.626 170.155 206.38 170.475 206.098 170.784C205.815 171.093 205.519 171.408 205.21 171.728L202.602 174.392C202.852 174.317 203.1 174.261 203.346 174.224C203.596 174.181 203.834 174.16 204.058 174.16H207.026ZM213.099 174.584C213.424 174.584 213.71 174.539 213.955 174.448C214.2 174.352 214.406 174.221 214.571 174.056C214.742 173.891 214.87 173.693 214.955 173.464C215.04 173.235 215.083 172.987 215.083 172.72C215.083 172.085 214.907 171.605 214.555 171.28C214.203 170.955 213.718 170.792 213.099 170.792C212.48 170.792 211.995 170.955 211.643 171.28C211.291 171.605 211.115 172.085 211.115 172.72C211.115 172.987 211.158 173.235 211.243 173.464C211.328 173.693 211.454 173.891 211.619 174.056C211.79 174.221 211.998 174.352 212.243 174.448C212.488 174.539 212.774 174.584 213.099 174.584ZM213.099 165.792C212.806 165.792 212.552 165.837 212.339 165.928C212.126 166.019 211.947 166.141 211.803 166.296C211.664 166.445 211.56 166.619 211.491 166.816C211.427 167.013 211.395 167.221 211.395 167.44C211.395 167.669 211.422 167.893 211.475 168.112C211.534 168.325 211.63 168.517 211.763 168.688C211.896 168.853 212.072 168.987 212.291 169.088C212.51 169.189 212.779 169.24 213.099 169.24C213.419 169.24 213.688 169.189 213.907 169.088C214.126 168.987 214.302 168.853 214.435 168.688C214.568 168.517 214.662 168.325 214.715 168.112C214.774 167.893 214.803 167.669 214.803 167.44C214.803 167.221 214.768 167.013 214.699 166.816C214.63 166.619 214.526 166.445 214.387 166.296C214.248 166.141 214.072 166.019 213.859 165.928C213.646 165.837 213.392 165.792 213.099 165.792ZM215.051 169.968C215.755 170.197 216.275 170.549 216.611 171.024C216.947 171.493 217.115 172.069 217.115 172.752C217.115 173.264 217.016 173.728 216.819 174.144C216.627 174.56 216.355 174.915 216.003 175.208C215.651 175.501 215.227 175.728 214.731 175.888C214.24 176.048 213.696 176.128 213.099 176.128C212.502 176.128 211.955 176.048 211.459 175.888C210.968 175.728 210.547 175.501 210.195 175.208C209.843 174.915 209.568 174.56 209.371 174.144C209.179 173.728 209.083 173.264 209.083 172.752C209.083 172.069 209.251 171.493 209.587 171.024C209.923 170.549 210.443 170.197 211.147 169.968C210.587 169.733 210.166 169.4 209.883 168.968C209.606 168.536 209.467 168.016 209.467 167.408C209.467 166.971 209.555 166.563 209.731 166.184C209.912 165.805 210.163 165.477 210.483 165.2C210.803 164.917 211.184 164.699 211.627 164.544C212.075 164.384 212.566 164.304 213.099 164.304C213.632 164.304 214.12 164.384 214.563 164.544C215.011 164.699 215.395 164.917 215.715 165.2C216.035 165.477 216.283 165.805 216.459 166.184C216.64 166.563 216.731 166.971 216.731 167.408C216.731 168.016 216.59 168.536 216.307 168.968C216.03 169.4 215.611 169.733 215.051 169.968ZM218.684 177.96C218.588 177.88 218.54 177.781 218.54 177.664C218.54 177.621 218.554 177.573 218.58 177.52C218.612 177.467 218.65 177.419 218.692 177.376C218.751 177.312 218.823 177.232 218.908 177.136C218.994 177.045 219.079 176.939 219.164 176.816C219.25 176.699 219.327 176.568 219.396 176.424C219.471 176.285 219.527 176.136 219.564 175.976C219.394 175.976 219.239 175.947 219.1 175.888C218.962 175.824 218.842 175.739 218.74 175.632C218.644 175.525 218.567 175.4 218.508 175.256C218.455 175.112 218.428 174.955 218.428 174.784C218.428 174.635 218.455 174.496 218.508 174.368C218.567 174.235 218.647 174.12 218.748 174.024C218.85 173.923 218.972 173.845 219.116 173.792C219.26 173.733 219.418 173.704 219.588 173.704C219.791 173.704 219.967 173.741 220.116 173.816C220.271 173.885 220.396 173.984 220.492 174.112C220.594 174.235 220.668 174.379 220.716 174.544C220.77 174.704 220.796 174.875 220.796 175.056C220.796 175.312 220.756 175.581 220.676 175.864C220.602 176.147 220.49 176.429 220.34 176.712C220.191 176.995 220.004 177.269 219.78 177.536C219.562 177.803 219.311 178.048 219.028 178.272L218.684 177.96ZM230.37 170.216C230.37 171.224 230.261 172.101 230.042 172.848C229.829 173.589 229.53 174.203 229.146 174.688C228.768 175.173 228.317 175.536 227.794 175.776C227.277 176.011 226.717 176.128 226.114 176.128C225.512 176.128 224.952 176.011 224.434 175.776C223.922 175.536 223.477 175.173 223.098 174.688C222.72 174.203 222.424 173.589 222.21 172.848C221.997 172.101 221.89 171.224 221.89 170.216C221.89 169.203 221.997 168.325 222.21 167.584C222.424 166.843 222.72 166.229 223.098 165.744C223.477 165.259 223.922 164.899 224.434 164.664C224.952 164.424 225.512 164.304 226.114 164.304C226.717 164.304 227.277 164.424 227.794 164.664C228.317 164.899 228.768 165.259 229.146 165.744C229.53 166.229 229.829 166.843 230.042 167.584C230.261 168.325 230.37 169.203 230.37 170.216ZM228.33 170.216C228.33 169.379 228.269 168.685 228.146 168.136C228.024 167.587 227.858 167.149 227.65 166.824C227.448 166.499 227.213 166.272 226.946 166.144C226.68 166.011 226.402 165.944 226.114 165.944C225.832 165.944 225.557 166.011 225.29 166.144C225.029 166.272 224.797 166.499 224.594 166.824C224.392 167.149 224.229 167.587 224.106 168.136C223.989 168.685 223.93 169.379 223.93 170.216C223.93 171.053 223.989 171.747 224.106 172.296C224.229 172.845 224.392 173.283 224.594 173.608C224.797 173.933 225.029 174.163 225.29 174.296C225.557 174.424 225.832 174.488 226.114 174.488C226.402 174.488 226.68 174.424 226.946 174.296C227.213 174.163 227.448 173.933 227.65 173.608C227.858 173.283 228.024 172.845 228.146 172.296C228.269 171.747 228.33 171.053 228.33 170.216ZM239.651 170.216C239.651 171.224 239.542 172.101 239.323 172.848C239.11 173.589 238.811 174.203 238.427 174.688C238.049 175.173 237.598 175.536 237.075 175.776C236.558 176.011 235.998 176.128 235.395 176.128C234.793 176.128 234.233 176.011 233.715 175.776C233.203 175.536 232.758 175.173 232.379 174.688C232.001 174.203 231.705 173.589 231.491 172.848C231.278 172.101 231.171 171.224 231.171 170.216C231.171 169.203 231.278 168.325 231.491 167.584C231.705 166.843 232.001 166.229 232.379 165.744C232.758 165.259 233.203 164.899 233.715 164.664C234.233 164.424 234.793 164.304 235.395 164.304C235.998 164.304 236.558 164.424 237.075 164.664C237.598 164.899 238.049 165.259 238.427 165.744C238.811 166.229 239.11 166.843 239.323 167.584C239.542 168.325 239.651 169.203 239.651 170.216ZM237.611 170.216C237.611 169.379 237.55 168.685 237.427 168.136C237.305 167.587 237.139 167.149 236.931 166.824C236.729 166.499 236.494 166.272 236.227 166.144C235.961 166.011 235.683 165.944 235.395 165.944C235.113 165.944 234.838 166.011 234.571 166.144C234.31 166.272 234.078 166.499 233.875 166.824C233.673 167.149 233.51 167.587 233.387 168.136C233.27 168.685 233.211 169.379 233.211 170.216C233.211 171.053 233.27 171.747 233.387 172.296C233.51 172.845 233.673 173.283 233.875 173.608C234.078 173.933 234.31 174.163 234.571 174.296C234.838 174.424 235.113 174.488 235.395 174.488C235.683 174.488 235.961 174.424 236.227 174.296C236.494 174.163 236.729 173.933 236.931 173.608C237.139 173.283 237.305 172.845 237.427 172.296C237.55 171.747 237.611 171.053 237.611 170.216ZM240.997 177.96C240.901 177.88 240.853 177.781 240.853 177.664C240.853 177.621 240.866 177.573 240.893 177.52C240.925 177.467 240.962 177.419 241.005 177.376C241.063 177.312 241.135 177.232 241.221 177.136C241.306 177.045 241.391 176.939 241.477 176.816C241.562 176.699 241.639 176.568 241.709 176.424C241.783 176.285 241.839 176.136 241.877 175.976C241.706 175.976 241.551 175.947 241.413 175.888C241.274 175.824 241.154 175.739 241.053 175.632C240.957 175.525 240.879 175.4 240.821 175.256C240.767 175.112 240.741 174.955 240.741 174.784C240.741 174.635 240.767 174.496 240.821 174.368C240.879 174.235 240.959 174.12 241.061 174.024C241.162 173.923 241.285 173.845 241.429 173.792C241.573 173.733 241.73 173.704 241.901 173.704C242.103 173.704 242.279 173.741 242.429 173.816C242.583 173.885 242.709 173.984 242.805 174.112C242.906 174.235 242.981 174.379 243.029 174.544C243.082 174.704 243.109 174.875 243.109 175.056C243.109 175.312 243.069 175.581 242.989 175.864C242.914 176.147 242.802 176.429 242.653 176.712C242.503 176.995 242.317 177.269 242.093 177.536C241.874 177.803 241.623 178.048 241.341 178.272L240.997 177.96ZM249.499 171.64V167.856C249.499 167.499 249.523 167.104 249.571 166.672L245.979 171.64H249.499ZM252.675 171.64V172.784C252.675 172.891 252.64 172.984 252.571 173.064C252.501 173.139 252.403 173.176 252.275 173.176H251.219V176H249.499V173.176H244.619C244.485 173.176 244.368 173.136 244.267 173.056C244.165 172.971 244.101 172.867 244.075 172.744L243.867 171.744L249.347 164.424H251.219V171.64H252.675ZM253.948 167.656C254.028 167.101 254.183 166.616 254.412 166.2C254.641 165.779 254.927 165.429 255.268 165.152C255.615 164.869 256.009 164.659 256.452 164.52C256.9 164.376 257.38 164.304 257.892 164.304C258.425 164.304 258.905 164.381 259.332 164.536C259.764 164.685 260.132 164.896 260.436 165.168C260.74 165.435 260.972 165.749 261.132 166.112C261.297 166.475 261.38 166.867 261.38 167.288C261.38 167.656 261.337 167.981 261.252 168.264C261.172 168.541 261.055 168.784 260.9 168.992C260.745 169.2 260.553 169.376 260.324 169.52C260.095 169.664 259.836 169.784 259.548 169.88C260.241 170.099 260.759 170.432 261.1 170.88C261.441 171.328 261.612 171.891 261.612 172.568C261.612 173.144 261.505 173.653 261.292 174.096C261.079 174.539 260.791 174.912 260.428 175.216C260.065 175.515 259.644 175.741 259.164 175.896C258.689 176.051 258.185 176.128 257.652 176.128C257.071 176.128 256.564 176.061 256.132 175.928C255.7 175.795 255.324 175.597 255.004 175.336C254.684 175.075 254.412 174.755 254.188 174.376C253.964 173.997 253.772 173.56 253.612 173.064L254.484 172.704C254.713 172.608 254.927 172.584 255.124 172.632C255.327 172.675 255.473 172.781 255.564 172.952C255.66 173.139 255.764 173.323 255.876 173.504C255.993 173.685 256.132 173.848 256.292 173.992C256.452 174.131 256.639 174.245 256.852 174.336C257.071 174.421 257.329 174.464 257.628 174.464C257.964 174.464 258.257 174.411 258.508 174.304C258.759 174.192 258.967 174.048 259.132 173.872C259.303 173.696 259.428 173.501 259.508 173.288C259.593 173.069 259.636 172.851 259.636 172.632C259.636 172.355 259.607 172.104 259.548 171.88C259.489 171.651 259.367 171.456 259.18 171.296C258.993 171.136 258.724 171.011 258.372 170.92C258.025 170.829 257.559 170.784 256.972 170.784V169.376C257.457 169.371 257.86 169.325 258.18 169.24C258.5 169.155 258.753 169.037 258.94 168.888C259.132 168.733 259.265 168.549 259.34 168.336C259.415 168.123 259.452 167.888 259.452 167.632C259.452 167.088 259.3 166.675 258.996 166.392C258.692 166.109 258.287 165.968 257.78 165.968C257.545 165.968 257.329 166.003 257.132 166.072C256.935 166.136 256.756 166.229 256.596 166.352C256.441 166.469 256.311 166.608 256.204 166.768C256.097 166.928 256.017 167.104 255.964 167.296C255.873 167.541 255.753 167.704 255.604 167.784C255.46 167.864 255.255 167.883 254.988 167.84L253.948 167.656ZM265.613 168.632C265.869 168.579 266.115 168.541 266.349 168.52C266.584 168.493 266.811 168.48 267.029 168.48C267.637 168.48 268.173 168.571 268.637 168.752C269.101 168.933 269.491 169.184 269.805 169.504C270.12 169.824 270.357 170.2 270.517 170.632C270.677 171.059 270.757 171.52 270.757 172.016C270.757 172.629 270.648 173.189 270.429 173.696C270.216 174.203 269.917 174.637 269.533 175C269.149 175.357 268.693 175.635 268.165 175.832C267.643 176.029 267.072 176.128 266.453 176.128C266.091 176.128 265.747 176.091 265.421 176.016C265.096 175.941 264.789 175.843 264.501 175.72C264.219 175.592 263.955 175.448 263.709 175.288C263.469 175.123 263.253 174.949 263.061 174.768L263.669 173.928C263.797 173.747 263.965 173.656 264.173 173.656C264.307 173.656 264.443 173.699 264.581 173.784C264.72 173.869 264.877 173.963 265.053 174.064C265.235 174.165 265.445 174.259 265.685 174.344C265.931 174.429 266.224 174.472 266.565 174.472C266.928 174.472 267.248 174.413 267.525 174.296C267.803 174.179 268.032 174.016 268.213 173.808C268.4 173.595 268.539 173.344 268.629 173.056C268.725 172.763 268.773 172.445 268.773 172.104C268.773 171.475 268.589 170.984 268.221 170.632C267.859 170.275 267.32 170.096 266.605 170.096C266.056 170.096 265.493 170.197 264.917 170.4L263.685 170.048L264.645 164.432H270.357V165.272C270.357 165.555 270.269 165.784 270.093 165.96C269.917 166.136 269.619 166.224 269.197 166.224H266.021L265.613 168.632Z" fill="black" fill-opacity="0.86"/>
<path d="M195.435 142.323V146.173C194.931 146.537 194.392 146.81 193.818 146.992C193.249 147.17 192.623 147.258 191.942 147.258C191.135 147.258 190.407 147.135 189.758 146.887C189.109 146.635 188.554 146.285 188.092 145.837C187.635 145.385 187.282 144.843 187.035 144.213C186.788 143.583 186.664 142.89 186.664 142.134C186.664 141.369 186.783 140.671 187.021 140.041C187.264 139.411 187.607 138.872 188.05 138.424C188.493 137.972 189.032 137.622 189.667 137.374C190.302 137.127 191.011 137.003 191.795 137.003C192.192 137.003 192.56 137.034 192.901 137.094C193.242 137.15 193.557 137.234 193.846 137.346C194.135 137.454 194.404 137.587 194.651 137.745C194.898 137.899 195.129 138.074 195.344 138.27L194.959 138.886C194.898 138.98 194.819 139.04 194.721 139.068C194.628 139.092 194.523 139.068 194.406 138.998C194.294 138.933 194.166 138.854 194.021 138.76C193.876 138.667 193.699 138.578 193.489 138.494C193.284 138.406 193.039 138.331 192.754 138.27C192.474 138.21 192.14 138.179 191.753 138.179C191.188 138.179 190.677 138.273 190.22 138.459C189.763 138.641 189.373 138.905 189.051 139.25C188.729 139.591 188.482 140.006 188.309 140.496C188.136 140.982 188.05 141.528 188.05 142.134C188.05 142.764 188.139 143.329 188.316 143.828C188.498 144.323 188.755 144.745 189.086 145.095C189.422 145.441 189.828 145.704 190.304 145.886C190.78 146.068 191.314 146.159 191.907 146.159C192.374 146.159 192.787 146.108 193.146 146.005C193.51 145.898 193.865 145.751 194.21 145.564V143.359H192.649C192.56 143.359 192.488 143.334 192.432 143.282C192.381 143.231 192.355 143.168 192.355 143.093V142.323H195.435ZM201.021 143.954C200.447 143.973 199.957 144.02 199.551 144.094C199.15 144.164 198.821 144.258 198.564 144.374C198.312 144.491 198.128 144.629 198.011 144.787C197.899 144.946 197.843 145.123 197.843 145.319C197.843 145.506 197.874 145.667 197.934 145.802C197.995 145.938 198.077 146.05 198.179 146.138C198.287 146.222 198.41 146.285 198.55 146.327C198.695 146.365 198.849 146.383 199.012 146.383C199.232 146.383 199.432 146.362 199.614 146.32C199.796 146.274 199.967 146.208 200.125 146.124C200.289 146.04 200.443 145.94 200.587 145.823C200.737 145.707 200.881 145.574 201.021 145.424V143.954ZM196.996 141.056C197.388 140.678 197.811 140.396 198.263 140.209C198.716 140.023 199.218 139.929 199.768 139.929C200.165 139.929 200.517 139.995 200.825 140.125C201.133 140.256 201.392 140.438 201.602 140.671C201.812 140.905 201.971 141.187 202.078 141.518C202.186 141.85 202.239 142.214 202.239 142.61V147.146H201.686C201.565 147.146 201.472 147.128 201.406 147.09C201.341 147.048 201.29 146.969 201.252 146.852L201.112 146.18C200.926 146.353 200.744 146.507 200.566 146.642C200.389 146.773 200.202 146.885 200.006 146.978C199.81 147.067 199.6 147.135 199.376 147.181C199.157 147.233 198.912 147.258 198.641 147.258C198.366 147.258 198.107 147.221 197.864 147.146C197.622 147.067 197.409 146.95 197.227 146.796C197.05 146.642 196.908 146.449 196.8 146.215C196.698 145.977 196.646 145.697 196.646 145.375C196.646 145.095 196.723 144.827 196.877 144.57C197.031 144.309 197.281 144.078 197.626 143.877C197.972 143.677 198.422 143.513 198.977 143.387C199.533 143.257 200.214 143.182 201.021 143.163V142.61C201.021 142.06 200.902 141.644 200.664 141.364C200.426 141.08 200.079 140.937 199.621 140.937C199.313 140.937 199.054 140.977 198.844 141.056C198.639 141.131 198.459 141.217 198.305 141.315C198.156 141.409 198.025 141.495 197.913 141.574C197.806 141.649 197.699 141.686 197.591 141.686C197.507 141.686 197.435 141.665 197.374 141.623C197.314 141.577 197.262 141.521 197.22 141.455L196.996 141.056ZM205.453 140.055V147.146H204.207V140.055H205.453ZM205.719 137.829C205.719 137.951 205.694 138.065 205.642 138.172C205.596 138.275 205.53 138.368 205.446 138.452C205.367 138.532 205.271 138.595 205.159 138.641C205.052 138.688 204.938 138.711 204.816 138.711C204.695 138.711 204.581 138.688 204.473 138.641C204.371 138.595 204.28 138.532 204.2 138.452C204.121 138.368 204.058 138.275 204.011 138.172C203.965 138.065 203.941 137.951 203.941 137.829C203.941 137.708 203.965 137.594 204.011 137.486C204.058 137.374 204.121 137.279 204.2 137.199C204.28 137.115 204.371 137.05 204.473 137.003C204.581 136.957 204.695 136.933 204.816 136.933C204.938 136.933 205.052 136.957 205.159 137.003C205.271 137.05 205.367 137.115 205.446 137.199C205.53 137.279 205.596 137.374 205.642 137.486C205.694 137.594 205.719 137.708 205.719 137.829ZM208.677 141.084C208.831 140.912 208.994 140.755 209.167 140.615C209.339 140.475 209.521 140.356 209.713 140.258C209.909 140.156 210.114 140.079 210.329 140.027C210.548 139.971 210.784 139.943 211.036 139.943C211.423 139.943 211.764 140.009 212.058 140.139C212.356 140.265 212.604 140.447 212.8 140.685C213 140.919 213.152 141.201 213.255 141.532C213.357 141.864 213.409 142.23 213.409 142.631V147.146H212.156V142.631C212.156 142.095 212.032 141.679 211.785 141.385C211.542 141.087 211.171 140.937 210.672 140.937C210.303 140.937 209.958 141.026 209.636 141.203C209.318 141.381 209.024 141.621 208.754 141.924V147.146H207.501V140.055H208.25C208.427 140.055 208.537 140.142 208.579 140.314L208.677 141.084ZM215.993 147.293C215.933 147.457 215.837 147.578 215.706 147.657C215.58 147.737 215.45 147.776 215.314 147.776H214.789L218.996 137.297C219.052 137.148 219.136 137.034 219.248 136.954C219.365 136.875 219.498 136.835 219.647 136.835H220.179L215.993 147.293ZM227.622 146.005V147.146H221.931V137.115H223.282V146.005H227.622ZM231.312 139.943C231.83 139.943 232.297 140.03 232.712 140.202C233.127 140.375 233.482 140.62 233.776 140.937C234.07 141.255 234.294 141.64 234.448 142.092C234.607 142.54 234.686 143.042 234.686 143.597C234.686 144.157 234.607 144.661 234.448 145.109C234.294 145.557 234.07 145.94 233.776 146.257C233.482 146.575 233.127 146.82 232.712 146.992C232.297 147.16 231.83 147.244 231.312 147.244C230.789 147.244 230.318 147.16 229.898 146.992C229.483 146.82 229.128 146.575 228.834 146.257C228.54 145.94 228.314 145.557 228.155 145.109C228.001 144.661 227.924 144.157 227.924 143.597C227.924 143.042 228.001 142.54 228.155 142.092C228.314 141.64 228.54 141.255 228.834 140.937C229.128 140.62 229.483 140.375 229.898 140.202C230.318 140.03 230.789 139.943 231.312 139.943ZM231.312 146.271C232.012 146.271 232.535 146.038 232.88 145.571C233.225 145.1 233.398 144.444 233.398 143.604C233.398 142.76 233.225 142.102 232.88 141.63C232.535 141.159 232.012 140.923 231.312 140.923C230.957 140.923 230.647 140.984 230.381 141.105C230.12 141.227 229.9 141.402 229.723 141.63C229.55 141.859 229.42 142.141 229.331 142.477C229.247 142.809 229.205 143.184 229.205 143.604C229.205 144.444 229.378 145.1 229.723 145.571C230.073 146.038 230.603 146.271 231.312 146.271ZM240.396 141.224C240.34 141.327 240.254 141.378 240.137 141.378C240.067 141.378 239.988 141.353 239.899 141.301C239.811 141.25 239.701 141.194 239.57 141.133C239.444 141.068 239.293 141.01 239.115 140.958C238.938 140.902 238.728 140.874 238.485 140.874C238.275 140.874 238.086 140.902 237.918 140.958C237.75 141.01 237.606 141.082 237.484 141.175C237.368 141.269 237.277 141.378 237.211 141.504C237.151 141.626 237.12 141.759 237.12 141.903C237.12 142.085 237.172 142.237 237.274 142.358C237.382 142.48 237.522 142.585 237.694 142.673C237.867 142.762 238.063 142.841 238.282 142.911C238.502 142.977 238.726 143.049 238.954 143.128C239.188 143.203 239.414 143.287 239.633 143.38C239.853 143.474 240.049 143.59 240.221 143.73C240.394 143.87 240.532 144.043 240.634 144.248C240.742 144.449 240.795 144.692 240.795 144.976C240.795 145.303 240.737 145.606 240.62 145.886C240.504 146.162 240.331 146.402 240.102 146.607C239.874 146.808 239.594 146.967 239.262 147.083C238.931 147.2 238.548 147.258 238.114 147.258C237.62 147.258 237.172 147.179 236.77 147.02C236.369 146.857 236.028 146.649 235.748 146.397L236.042 145.921C236.08 145.861 236.124 145.814 236.175 145.781C236.227 145.749 236.292 145.732 236.371 145.732C236.455 145.732 236.544 145.765 236.637 145.83C236.731 145.896 236.843 145.968 236.973 146.047C237.109 146.127 237.272 146.199 237.463 146.264C237.655 146.33 237.893 146.362 238.177 146.362C238.42 146.362 238.632 146.332 238.814 146.271C238.996 146.206 239.148 146.12 239.269 146.012C239.391 145.905 239.479 145.781 239.535 145.641C239.596 145.501 239.626 145.352 239.626 145.193C239.626 144.997 239.573 144.836 239.465 144.71C239.363 144.58 239.225 144.47 239.052 144.381C238.88 144.288 238.681 144.209 238.457 144.143C238.238 144.073 238.012 144.001 237.778 143.926C237.55 143.852 237.323 143.768 237.099 143.674C236.88 143.576 236.684 143.455 236.511 143.31C236.339 143.166 236.199 142.988 236.091 142.778C235.989 142.564 235.937 142.305 235.937 142.001C235.937 141.731 235.993 141.472 236.105 141.224C236.217 140.972 236.381 140.753 236.595 140.566C236.81 140.375 237.074 140.223 237.386 140.111C237.699 139.999 238.056 139.943 238.457 139.943C238.924 139.943 239.342 140.018 239.71 140.167C240.084 140.312 240.406 140.513 240.676 140.769L240.396 141.224ZM246.453 141.224C246.397 141.327 246.311 141.378 246.194 141.378C246.124 141.378 246.045 141.353 245.956 141.301C245.867 141.25 245.758 141.194 245.627 141.133C245.501 141.068 245.349 141.01 245.172 140.958C244.995 140.902 244.785 140.874 244.542 140.874C244.332 140.874 244.143 140.902 243.975 140.958C243.807 141.01 243.662 141.082 243.541 141.175C243.424 141.269 243.333 141.378 243.268 141.504C243.207 141.626 243.177 141.759 243.177 141.903C243.177 142.085 243.228 142.237 243.331 142.358C243.438 142.48 243.578 142.585 243.751 142.673C243.924 142.762 244.12 142.841 244.339 142.911C244.558 142.977 244.782 143.049 245.011 143.128C245.244 143.203 245.471 143.287 245.69 143.38C245.909 143.474 246.105 143.59 246.278 143.73C246.451 143.87 246.588 144.043 246.691 144.248C246.798 144.449 246.852 144.692 246.852 144.976C246.852 145.303 246.794 145.606 246.677 145.886C246.56 146.162 246.388 146.402 246.159 146.607C245.93 146.808 245.65 146.967 245.319 147.083C244.988 147.2 244.605 147.258 244.171 147.258C243.676 147.258 243.228 147.179 242.827 147.02C242.426 146.857 242.085 146.649 241.805 146.397L242.099 145.921C242.136 145.861 242.181 145.814 242.232 145.781C242.283 145.749 242.349 145.732 242.428 145.732C242.512 145.732 242.601 145.765 242.694 145.83C242.787 145.896 242.899 145.968 243.03 146.047C243.165 146.127 243.329 146.199 243.52 146.264C243.711 146.33 243.949 146.362 244.234 146.362C244.477 146.362 244.689 146.332 244.871 146.271C245.053 146.206 245.205 146.12 245.326 146.012C245.447 145.905 245.536 145.781 245.592 145.641C245.653 145.501 245.683 145.352 245.683 145.193C245.683 144.997 245.629 144.836 245.522 144.71C245.419 144.58 245.282 144.47 245.109 144.381C244.936 144.288 244.738 144.209 244.514 144.143C244.295 144.073 244.068 144.001 243.835 143.926C243.606 143.852 243.38 143.768 243.156 143.674C242.937 143.576 242.741 143.455 242.568 143.31C242.395 143.166 242.255 142.988 242.148 142.778C242.045 142.564 241.994 142.305 241.994 142.001C241.994 141.731 242.05 141.472 242.162 141.224C242.274 140.972 242.437 140.753 242.652 140.566C242.867 140.375 243.13 140.223 243.443 140.111C243.756 139.999 244.113 139.943 244.514 139.943C244.981 139.943 245.398 140.018 245.767 140.167C246.14 140.312 246.462 140.513 246.733 140.769L246.453 141.224Z" fill="#FF7101"/>
<path d="M53.8782 90.5295C54.3315 90.5295 54.6885 90.6598 54.9492 90.9205C55.2212 91.1698 55.3572 91.5041 55.3572 91.9235V94.4395H38.4932V93.0455C38.4932 92.7621 38.5498 92.4675 38.6632 92.1615C38.7878 91.8441 38.9805 91.5608 39.2412 91.3115L46.7042 83.8315C47.3275 83.1968 47.8828 82.5905 48.3702 82.0125C48.8688 81.4345 49.2825 80.8621 49.6112 80.2955C49.9398 79.7288 50.1892 79.1565 50.3592 78.5785C50.5405 77.9891 50.6312 77.3715 50.6312 76.7255C50.6312 76.1361 50.5462 75.6205 50.3762 75.1785C50.2062 74.7251 49.9625 74.3455 49.6452 74.0395C49.3392 73.7335 48.9652 73.5068 48.5232 73.3595C48.0925 73.2008 47.6052 73.1215 47.0612 73.1215C46.5625 73.1215 46.0978 73.1951 45.6672 73.3425C45.2478 73.4785 44.8738 73.6768 44.5452 73.9375C44.2165 74.1868 43.9388 74.4815 43.7122 74.8215C43.4855 75.1615 43.3155 75.5355 43.2022 75.9435C43.0095 76.4648 42.7602 76.8105 42.4542 76.9805C42.1482 77.1505 41.7062 77.1901 41.1282 77.0995L38.9182 76.7085C39.0882 75.5298 39.4168 74.4985 39.9042 73.6145C40.3915 72.7191 40.9978 71.9768 41.7232 71.3875C42.4598 70.7868 43.2985 70.3391 44.2392 70.0445C45.1912 69.7385 46.2112 69.5855 47.2992 69.5855C48.4325 69.5855 49.4695 69.7555 50.4102 70.0955C51.3508 70.4241 52.1555 70.8945 52.8242 71.5065C53.4928 72.1185 54.0142 72.8551 54.3882 73.7165C54.7622 74.5778 54.9492 75.5355 54.9492 76.5895C54.9492 77.4961 54.8132 78.3348 54.5412 79.1055C54.2805 79.8761 53.9235 80.6128 53.4702 81.3155C53.0282 82.0181 52.5068 82.6981 51.9062 83.3555C51.3055 84.0128 50.6765 84.6815 50.0192 85.3615L44.4772 91.0225C45.0098 90.8638 45.5368 90.7448 46.0582 90.6655C46.5908 90.5748 47.0952 90.5295 47.5712 90.5295H53.8782ZM58.3858 92.1275C58.3858 91.7761 58.4482 91.4418 58.5728 91.1245C58.7088 90.8071 58.8902 90.5351 59.1168 90.3085C59.3435 90.0818 59.6155 89.9005 59.9328 89.7645C60.2502 89.6285 60.5902 89.5605 60.9528 89.5605C61.3155 89.5605 61.6498 89.6285 61.9558 89.7645C62.2732 89.9005 62.5452 90.0818 62.7718 90.3085C63.0098 90.5351 63.1968 90.8071 63.3328 91.1245C63.4688 91.4418 63.5368 91.7761 63.5368 92.1275C63.5368 92.4901 63.4688 92.8301 63.3328 93.1475C63.1968 93.4535 63.0098 93.7198 62.7718 93.9465C62.5452 94.1731 62.2732 94.3488 61.9558 94.4735C61.6498 94.6095 61.3155 94.6775 60.9528 94.6775C60.5902 94.6775 60.2502 94.6095 59.9328 94.4735C59.6155 94.3488 59.3435 94.1731 59.1168 93.9465C58.8902 93.7198 58.7088 93.4535 58.5728 93.1475C58.4482 92.8301 58.3858 92.4901 58.3858 92.1275ZM71.8942 78.7825C72.4382 78.6691 72.9595 78.5898 73.4582 78.5445C73.9569 78.4878 74.4385 78.4595 74.9032 78.4595C76.1952 78.4595 77.3342 78.6521 78.3202 79.0375C79.3062 79.4228 80.1335 79.9555 80.8022 80.6355C81.4709 81.3155 81.9752 82.1145 82.3152 83.0325C82.6552 83.9391 82.8252 84.9195 82.8252 85.9735C82.8252 87.2768 82.5929 88.4668 82.1282 89.5435C81.6749 90.6201 81.0402 91.5438 80.2242 92.3145C79.4082 93.0738 78.4392 93.6631 77.3172 94.0825C76.2065 94.5018 74.9939 94.7115 73.6792 94.7115C72.9085 94.7115 72.1775 94.6321 71.4862 94.4735C70.7949 94.3148 70.1432 94.1051 69.5312 93.8445C68.9305 93.5725 68.3695 93.2665 67.8482 92.9265C67.3382 92.5751 66.8792 92.2068 66.4712 91.8215L67.7632 90.0365C68.0352 89.6511 68.3922 89.4585 68.8342 89.4585C69.1175 89.4585 69.4065 89.5491 69.7012 89.7305C69.9959 89.9118 70.3302 90.1101 70.7042 90.3255C71.0895 90.5408 71.5372 90.7391 72.0472 90.9205C72.5685 91.1018 73.1919 91.1925 73.9172 91.1925C74.6879 91.1925 75.3679 91.0678 75.9572 90.8185C76.5465 90.5691 77.0339 90.2235 77.4192 89.7815C77.8159 89.3281 78.1105 88.7955 78.3032 88.1835C78.5072 87.5601 78.6092 86.8858 78.6092 86.1605C78.6092 84.8231 78.2182 83.7805 77.4362 83.0325C76.6655 82.2731 75.5209 81.8935 74.0022 81.8935C72.8349 81.8935 71.6392 82.1088 70.4152 82.5395L67.7972 81.7915L69.8372 69.8575H81.9752V71.6425C81.9752 72.2431 81.7882 72.7305 81.4142 73.1045C81.0402 73.4785 80.4055 73.6655 79.5102 73.6655H72.7612L71.8942 78.7825ZM94.5748 91.4305C95.2662 91.4305 95.8725 91.3341 96.3938 91.1415C96.9152 90.9375 97.3515 90.6598 97.7028 90.3085C98.0655 89.9571 98.3375 89.5378 98.5188 89.0505C98.7002 88.5631 98.7908 88.0361 98.7908 87.4695C98.7908 86.1208 98.4168 85.1008 97.6688 84.4095C96.9208 83.7181 95.8895 83.3725 94.5748 83.3725C93.2602 83.3725 92.2288 83.7181 91.4808 84.4095C90.7328 85.1008 90.3588 86.1208 90.3588 87.4695C90.3588 88.0361 90.4495 88.5631 90.6308 89.0505C90.8122 89.5378 91.0785 89.9571 91.4298 90.3085C91.7925 90.6598 92.2345 90.9375 92.7558 91.1415C93.2772 91.3341 93.8835 91.4305 94.5748 91.4305ZM94.5748 72.7475C93.9515 72.7475 93.4132 72.8438 92.9598 73.0365C92.5065 73.2291 92.1268 73.4898 91.8208 73.8185C91.5262 74.1358 91.3052 74.5041 91.1578 74.9235C91.0218 75.3428 90.9538 75.7848 90.9538 76.2495C90.9538 76.7368 91.0105 77.2128 91.1238 77.6775C91.2485 78.1308 91.4525 78.5388 91.7358 78.9015C92.0192 79.2528 92.3932 79.5361 92.8578 79.7515C93.3225 79.9668 93.8948 80.0745 94.5748 80.0745C95.2548 80.0745 95.8272 79.9668 96.2918 79.7515C96.7565 79.5361 97.1305 79.2528 97.4138 78.9015C97.6972 78.5388 97.8955 78.1308 98.0088 77.6775C98.1335 77.2128 98.1958 76.7368 98.1958 76.2495C98.1958 75.7848 98.1222 75.3428 97.9748 74.9235C97.8275 74.5041 97.6065 74.1358 97.3118 73.8185C97.0172 73.4898 96.6432 73.2291 96.1898 73.0365C95.7365 72.8438 95.1982 72.7475 94.5748 72.7475ZM98.7228 81.6215C100.219 82.1088 101.324 82.8568 102.038 83.8655C102.752 84.8628 103.109 86.0868 103.109 87.5375C103.109 88.6255 102.899 89.6115 102.48 90.4955C102.072 91.3795 101.494 92.1331 100.746 92.7565C99.9978 93.3798 99.0968 93.8615 98.0428 94.2015C97.0002 94.5415 95.8442 94.7115 94.5748 94.7115C93.3055 94.7115 92.1438 94.5415 91.0898 94.2015C90.0472 93.8615 89.1518 93.3798 88.4038 92.7565C87.6558 92.1331 87.0722 91.3795 86.6528 90.4955C86.2448 89.6115 86.0408 88.6255 86.0408 87.5375C86.0408 86.0868 86.3978 84.8628 87.1118 83.8655C87.8258 82.8568 88.9308 82.1088 90.4268 81.6215C89.2368 81.1228 88.3415 80.4145 87.7408 79.4965C87.1515 78.5785 86.8568 77.4735 86.8568 76.1815C86.8568 75.2521 87.0438 74.3851 87.4178 73.5805C87.8032 72.7758 88.3358 72.0788 89.0158 71.4895C89.6958 70.8888 90.5062 70.4241 91.4468 70.0955C92.3988 69.7555 93.4415 69.5855 94.5748 69.5855C95.7082 69.5855 96.7452 69.7555 97.6858 70.0955C98.6378 70.4241 99.4538 70.8888 100.134 71.4895C100.814 72.0788 101.341 72.7758 101.715 73.5805C102.1 74.3851 102.293 75.2521 102.293 76.1815C102.293 77.4735 101.993 78.5785 101.392 79.4965C100.803 80.4145 99.9128 81.1228 98.7228 81.6215ZM132.323 88.6425C132.572 88.6425 132.793 88.7388 132.986 88.9315L134.788 90.8865C133.791 92.1218 132.561 93.0681 131.099 93.7255C129.648 94.3828 127.903 94.7115 125.863 94.7115C124.038 94.7115 122.395 94.3998 120.933 93.7765C119.482 93.1531 118.241 92.2861 117.21 91.1755C116.179 90.0648 115.385 88.7388 114.83 87.1975C114.286 85.6561 114.014 83.9731 114.014 82.1485C114.014 80.3011 114.309 78.6125 114.898 77.0825C115.487 75.5411 116.315 74.2151 117.38 73.1045C118.457 71.9938 119.737 71.1325 121.222 70.5205C122.707 69.8971 124.35 69.5855 126.152 69.5855C127.943 69.5855 129.529 69.8801 130.912 70.4695C132.306 71.0588 133.49 71.8295 134.465 72.7815L132.935 74.9065C132.844 75.0425 132.725 75.1615 132.578 75.2635C132.442 75.3655 132.249 75.4165 132 75.4165C131.83 75.4165 131.654 75.3711 131.473 75.2805C131.292 75.1785 131.093 75.0595 130.878 74.9235C130.663 74.7761 130.413 74.6175 130.13 74.4475C129.847 74.2775 129.518 74.1245 129.144 73.9885C128.77 73.8411 128.334 73.7221 127.835 73.6315C127.348 73.5295 126.781 73.4785 126.135 73.4785C125.036 73.4785 124.027 73.6768 123.109 74.0735C122.202 74.4588 121.42 75.0255 120.763 75.7735C120.106 76.5101 119.596 77.4168 119.233 78.4935C118.87 79.5588 118.689 80.7771 118.689 82.1485C118.689 83.5311 118.882 84.7608 119.267 85.8375C119.664 86.9141 120.196 87.8208 120.865 88.5575C121.534 89.2941 122.321 89.8608 123.228 90.2575C124.135 90.6428 125.109 90.8355 126.152 90.8355C126.775 90.8355 127.336 90.8015 127.835 90.7335C128.345 90.6655 128.81 90.5578 129.229 90.4105C129.66 90.2631 130.062 90.0761 130.436 89.8495C130.821 89.6115 131.201 89.3225 131.575 88.9825C131.688 88.8805 131.807 88.8011 131.932 88.7445C132.057 88.6765 132.187 88.6425 132.323 88.6425ZM145.35 81.5535C146.211 81.5535 146.959 81.4458 147.594 81.2305C148.24 81.0151 148.767 80.7205 149.175 80.3465C149.594 79.9611 149.906 79.5078 150.11 78.9865C150.314 78.4651 150.416 77.8928 150.416 77.2695C150.416 76.0228 150.002 75.0651 149.175 74.3965C148.359 73.7278 147.106 73.3935 145.418 73.3935H142.494V81.5535H145.35ZM157.114 94.4395H152.983C152.201 94.4395 151.634 94.1335 151.283 93.5215L146.115 85.6505C145.922 85.3558 145.707 85.1461 145.469 85.0215C145.242 84.8968 144.902 84.8345 144.449 84.8345H142.494V94.4395H137.921V69.8575H145.418C147.084 69.8575 148.512 70.0331 149.702 70.3845C150.903 70.7245 151.883 71.2061 152.643 71.8295C153.413 72.4528 153.98 73.2008 154.343 74.0735C154.705 74.9348 154.887 75.8868 154.887 76.9295C154.887 77.7568 154.762 78.5388 154.513 79.2755C154.275 80.0121 153.923 80.6808 153.459 81.2815C153.005 81.8821 152.439 82.4091 151.759 82.8625C151.09 83.3158 150.325 83.6728 149.464 83.9335C149.758 84.1035 150.03 84.3075 150.28 84.5455C150.529 84.7721 150.756 85.0441 150.96 85.3615L157.114 94.4395Z" fill="black"/>
<path d="M45.3851 41.875H43.2051V48H41.8601V41.875H39.6801V40.77H45.3851V41.875ZM53.182 44.385C53.182 44.915 53.0937 45.4067 52.917 45.86C52.7437 46.31 52.497 46.7 52.177 47.03C51.857 47.36 51.472 47.6183 51.022 47.805C50.572 47.9883 50.072 48.08 49.522 48.08C48.9754 48.08 48.477 47.9883 48.027 47.805C47.577 47.6183 47.1904 47.36 46.867 47.03C46.547 46.7 46.2987 46.31 46.122 45.86C45.9454 45.4067 45.857 44.915 45.857 44.385C45.857 43.855 45.9454 43.365 46.122 42.915C46.2987 42.4617 46.547 42.07 46.867 41.74C47.1904 41.41 47.577 41.1533 48.027 40.97C48.477 40.7833 48.9754 40.69 49.522 40.69C49.8887 40.69 50.2337 40.7333 50.557 40.82C50.8804 40.9033 51.177 41.0233 51.447 41.18C51.717 41.3333 51.9587 41.5217 52.172 41.745C52.3887 41.965 52.572 42.2117 52.722 42.485C52.872 42.7583 52.9854 43.055 53.062 43.375C53.142 43.695 53.182 44.0317 53.182 44.385ZM51.807 44.385C51.807 43.9883 51.7537 43.6333 51.647 43.32C51.5404 43.0033 51.3887 42.735 51.192 42.515C50.9954 42.295 50.7554 42.1267 50.472 42.01C50.192 41.8933 49.8754 41.835 49.522 41.835C49.1687 41.835 48.8504 41.8933 48.567 42.01C48.287 42.1267 48.047 42.295 47.847 42.515C47.6504 42.735 47.4987 43.0033 47.392 43.32C47.2854 43.6333 47.232 43.9883 47.232 44.385C47.232 44.7817 47.2854 45.1383 47.392 45.455C47.4987 45.7683 47.6504 46.035 47.847 46.255C48.047 46.4717 48.287 46.6383 48.567 46.755C48.8504 46.8717 49.1687 46.93 49.522 46.93C49.8754 46.93 50.192 46.8717 50.472 46.755C50.7554 46.6383 50.9954 46.4717 51.192 46.255C51.3887 46.035 51.5404 45.7683 51.647 45.455C51.7537 45.1383 51.807 44.7817 51.807 44.385ZM59.3691 41.875H57.1891V48H55.8441V41.875H53.6641V40.77H59.3691V41.875ZM63.632 45.27L62.752 42.865C62.7087 42.7583 62.6637 42.6317 62.617 42.485C62.5704 42.3383 62.5237 42.18 62.477 42.01C62.4337 42.18 62.3887 42.34 62.342 42.49C62.2954 42.6367 62.2504 42.765 62.207 42.875L61.332 45.27H63.632ZM66.007 48H64.967C64.8504 48 64.7554 47.9717 64.682 47.915C64.6087 47.855 64.5537 47.7817 64.517 47.695L63.977 46.22H60.982L60.442 47.695C60.4154 47.7717 60.3637 47.8417 60.287 47.905C60.2104 47.9683 60.1154 48 60.002 48H58.952L61.797 40.77H63.167L66.007 48ZM71.1904 46.89V48H66.9554V40.77H68.3004V46.89H71.1904ZM76.0296 41.84V43.98H78.7396V45.055H76.0296V48H74.6796V40.77H79.2396V41.84H76.0296ZM83.768 45.27L82.888 42.865C82.8446 42.7583 82.7996 42.6317 82.753 42.485C82.7063 42.3383 82.6596 42.18 82.613 42.01C82.5696 42.18 82.5246 42.34 82.478 42.49C82.4313 42.6367 82.3863 42.765 82.343 42.875L81.468 45.27H83.768ZM86.143 48H85.103C84.9863 48 84.8913 47.9717 84.818 47.915C84.7446 47.855 84.6896 47.7817 84.653 47.695L84.113 46.22H81.118L80.578 47.695C80.5513 47.7717 80.4996 47.8417 80.423 47.905C80.3463 47.9683 80.2513 48 80.138 48H79.088L81.933 40.77H83.303L86.143 48ZM94.9313 40.77V48H93.7463V43.33C93.7463 43.1433 93.7563 42.9417 93.7763 42.725L91.5913 46.83C91.488 47.0267 91.3297 47.125 91.1163 47.125H90.9263C90.713 47.125 90.5547 47.0267 90.4513 46.83L88.2413 42.71C88.2513 42.82 88.2597 42.9283 88.2663 43.035C88.273 43.1417 88.2763 43.24 88.2763 43.33V48H87.0913V40.77H88.1063C88.1663 40.77 88.218 40.7717 88.2613 40.775C88.3047 40.7783 88.343 40.7867 88.3763 40.8C88.413 40.8133 88.4447 40.835 88.4713 40.865C88.5013 40.895 88.5297 40.935 88.5563 40.985L90.7213 45C90.778 45.1067 90.8297 45.2167 90.8763 45.33C90.9263 45.4433 90.9747 45.56 91.0213 45.68C91.068 45.5567 91.1163 45.4383 91.1663 45.325C91.2163 45.2083 91.2697 45.0967 91.3263 44.99L93.4613 40.985C93.488 40.935 93.5163 40.895 93.5463 40.865C93.5763 40.835 93.608 40.8133 93.6413 40.8C93.678 40.7867 93.718 40.7783 93.7613 40.775C93.8047 40.7717 93.8563 40.77 93.9163 40.77H94.9313ZM98.0945 48H96.7445V40.77H98.0945V48ZM104.148 46.89V48H99.9132V40.77H101.258V46.89H104.148ZM107.466 45.2V48H106.126V45.2L103.491 40.77H104.676C104.793 40.77 104.885 40.7983 104.951 40.855C105.021 40.9117 105.08 40.9833 105.126 41.07L106.446 43.485C106.523 43.6283 106.59 43.7633 106.646 43.89C106.706 44.0167 106.76 44.1433 106.806 44.27C106.85 44.1433 106.9 44.0167 106.956 43.89C107.013 43.7633 107.078 43.6283 107.151 43.485L108.466 41.07C108.503 40.9967 108.558 40.9283 108.631 40.865C108.705 40.8017 108.798 40.77 108.911 40.77H110.101L107.466 45.2ZM122.819 40.77L120.574 48H119.359L117.779 43.06C117.735 42.94 117.695 42.7933 117.659 42.62C117.639 42.7033 117.619 42.7817 117.599 42.855C117.579 42.9283 117.557 42.9967 117.534 43.06L115.939 48H114.719L112.479 40.77H113.604C113.72 40.77 113.817 40.7983 113.894 40.855C113.974 40.9083 114.027 40.9817 114.054 41.075L115.284 45.4C115.31 45.5067 115.335 45.6233 115.359 45.75C115.385 45.8733 115.412 46.0033 115.439 46.14C115.465 46 115.494 45.8683 115.524 45.745C115.557 45.6217 115.592 45.5067 115.629 45.4L117.049 41.075C117.075 40.9983 117.127 40.9283 117.204 40.865C117.284 40.8017 117.38 40.77 117.494 40.77H117.889C118.005 40.77 118.1 40.7983 118.174 40.855C118.247 40.9117 118.302 40.985 118.339 41.075L119.754 45.4C119.824 45.6067 119.887 45.845 119.944 46.115C119.987 45.8517 120.035 45.6133 120.089 45.4L121.319 41.075C121.339 40.9917 121.389 40.92 121.469 40.86C121.552 40.8 121.65 40.77 121.764 40.77H122.819ZM125.257 41.84V43.845H127.787V44.88H125.257V46.925H128.467V48H123.907V40.77H128.467V41.84H125.257ZM133.679 45.27L132.799 42.865C132.755 42.7583 132.71 42.6317 132.664 42.485C132.617 42.3383 132.57 42.18 132.524 42.01C132.48 42.18 132.435 42.34 132.389 42.49C132.342 42.6367 132.297 42.765 132.254 42.875L131.379 45.27H133.679ZM136.054 48H135.014C134.897 48 134.802 47.9717 134.729 47.915C134.655 47.855 134.6 47.7817 134.564 47.695L134.024 46.22H131.029L130.489 47.695C130.462 47.7717 130.41 47.8417 130.334 47.905C130.257 47.9683 130.162 48 130.049 48H128.999L131.844 40.77H133.214L136.054 48ZM141.237 46.89V48H137.002V40.77H138.347V46.89H141.237ZM146.549 41.875H144.369V48H143.024V41.875H140.844V40.77H146.549V41.875ZM153.79 40.77V48H152.44V44.84H149.045V48H147.695V40.77H149.045V43.88H152.44V40.77H153.79Z" fill="#333333"/>
<path d="M316.588 45.6824H313.258V49.2644H310.99V45.6824H307.678V43.6844H310.99V40.1204H313.258V43.6844H316.588V45.6824ZM327.775 45.6374V42.2174C327.775 42.0074 327.781 41.7824 327.793 41.5424C327.811 41.2964 327.835 41.0414 327.865 40.7774L324.4 45.6374H327.775ZM331.555 45.6374V47.2034C331.555 47.3414 331.507 47.4614 331.411 47.5634C331.321 47.6654 331.189 47.7164 331.015 47.7164H330.205V50.7314H327.775V47.7164H322.501C322.327 47.7164 322.168 47.6624 322.024 47.5544C321.886 47.4464 321.799 47.3114 321.763 47.1494L321.475 45.7724L327.541 37.6184H330.205V45.6374H331.555Z" fill="black"/>
<path d="M355.769 40.0114V48.6094H354.749V42.2914C354.749 42.2074 354.751 42.1174 354.755 42.0214C354.763 41.9254 354.771 41.8274 354.779 41.7274L351.827 47.1034C351.735 47.2834 351.595 47.3734 351.407 47.3734H351.239C351.051 47.3734 350.911 47.2834 350.819 47.1034L347.807 41.7034C347.831 41.9154 347.843 42.1114 347.843 42.2914V48.6094H346.823V40.0114H347.681C347.785 40.0114 347.865 40.0214 347.921 40.0414C347.977 40.0614 348.031 40.1174 348.083 40.2094L351.053 45.5014C351.101 45.5974 351.147 45.6974 351.191 45.8014C351.239 45.9054 351.283 46.0114 351.323 46.1194C351.363 46.0114 351.405 45.9054 351.449 45.8014C351.493 45.6934 351.541 45.5914 351.593 45.4954L354.509 40.2094C354.557 40.1174 354.609 40.0614 354.665 40.0414C354.725 40.0214 354.807 40.0114 354.911 40.0114H355.769ZM361.596 44.9074C361.596 44.6594 361.56 44.4334 361.488 44.2294C361.42 44.0214 361.318 43.8434 361.182 43.6954C361.05 43.5434 360.888 43.4274 360.696 43.3474C360.504 43.2634 360.286 43.2214 360.042 43.2214C359.53 43.2214 359.124 43.3714 358.824 43.6714C358.528 43.9674 358.344 44.3794 358.272 44.9074H361.596ZM362.46 47.7574C362.328 47.9174 362.17 48.0574 361.986 48.1774C361.802 48.2934 361.604 48.3894 361.392 48.4654C361.184 48.5414 360.968 48.5974 360.744 48.6334C360.52 48.6734 360.298 48.6934 360.078 48.6934C359.658 48.6934 359.27 48.6234 358.914 48.4834C358.562 48.3394 358.256 48.1314 357.996 47.8594C357.74 47.5834 357.54 47.2434 357.396 46.8394C357.252 46.4354 357.18 45.9714 357.18 45.4474C357.18 45.0234 357.244 44.6274 357.372 44.2594C357.504 43.8914 357.692 43.5734 357.936 43.3054C358.18 43.0334 358.478 42.8214 358.83 42.6694C359.182 42.5134 359.578 42.4354 360.018 42.4354C360.382 42.4354 360.718 42.4974 361.026 42.6214C361.338 42.7414 361.606 42.9174 361.83 43.1494C362.058 43.3774 362.236 43.6614 362.364 44.0014C362.492 44.3374 362.556 44.7214 362.556 45.1534C362.556 45.3214 362.538 45.4334 362.502 45.4894C362.466 45.5454 362.398 45.5734 362.298 45.5734H358.236C358.248 45.9574 358.3 46.2914 358.392 46.5754C358.488 46.8594 358.62 47.0974 358.788 47.2894C358.956 47.4774 359.156 47.6194 359.388 47.7154C359.62 47.8074 359.88 47.8534 360.168 47.8534C360.436 47.8534 360.666 47.8234 360.858 47.7634C361.054 47.6994 361.222 47.6314 361.362 47.5594C361.502 47.4874 361.618 47.4214 361.71 47.3614C361.806 47.2974 361.888 47.2654 361.956 47.2654C362.044 47.2654 362.112 47.2994 362.16 47.3674L362.46 47.7574ZM363.868 48.6094V42.5314H364.51C364.662 42.5314 364.756 42.6054 364.792 42.7534L364.87 43.3774C365.094 43.1014 365.346 42.8754 365.626 42.6994C365.906 42.5234 366.23 42.4354 366.598 42.4354C367.006 42.4354 367.336 42.5494 367.588 42.7774C367.844 43.0054 368.028 43.3134 368.14 43.7014C368.228 43.4814 368.34 43.2914 368.476 43.1314C368.616 42.9714 368.772 42.8394 368.944 42.7354C369.116 42.6314 369.298 42.5554 369.49 42.5074C369.686 42.4594 369.884 42.4354 370.084 42.4354C370.404 42.4354 370.688 42.4874 370.936 42.5914C371.188 42.6914 371.4 42.8394 371.572 43.0354C371.748 43.2314 371.882 43.4734 371.974 43.7614C372.066 44.0454 372.112 44.3714 372.112 44.7394V48.6094H371.038V44.7394C371.038 44.2634 370.934 43.9034 370.726 43.6594C370.518 43.4114 370.218 43.2874 369.826 43.2874C369.65 43.2874 369.482 43.3194 369.322 43.3834C369.166 43.4434 369.028 43.5334 368.908 43.6534C368.788 43.7734 368.692 43.9254 368.62 44.1094C368.552 44.2894 368.518 44.4994 368.518 44.7394V48.6094H367.444V44.7394C367.444 44.2514 367.346 43.8874 367.15 43.6474C366.954 43.4074 366.668 43.2874 366.292 43.2874C366.028 43.2874 365.784 43.3594 365.56 43.5034C365.336 43.6434 365.13 43.8354 364.942 44.0794V48.6094H363.868ZM374.809 47.1454C375.005 47.4094 375.219 47.5954 375.451 47.7034C375.687 47.8114 375.945 47.8654 376.225 47.8654C376.797 47.8654 377.235 47.6634 377.539 47.2594C377.843 46.8554 377.995 46.2534 377.995 45.4534C377.995 44.7094 377.859 44.1634 377.587 43.8154C377.319 43.4634 376.935 43.2874 376.435 43.2874C376.087 43.2874 375.783 43.3674 375.523 43.5274C375.267 43.6874 375.029 43.9134 374.809 44.2054V47.1454ZM374.809 43.4074C375.065 43.1114 375.353 42.8754 375.673 42.6994C375.997 42.5234 376.369 42.4354 376.789 42.4354C377.145 42.4354 377.465 42.5034 377.749 42.6394C378.037 42.7754 378.281 42.9734 378.481 43.2334C378.681 43.4894 378.833 43.8014 378.937 44.1694C379.045 44.5374 379.099 44.9514 379.099 45.4114C379.099 45.9034 379.039 46.3514 378.919 46.7554C378.799 47.1594 378.625 47.5054 378.397 47.7934C378.173 48.0774 377.899 48.2994 377.575 48.4594C377.251 48.6154 376.887 48.6934 376.483 48.6934C376.083 48.6934 375.745 48.6194 375.469 48.4714C375.197 48.3194 374.959 48.1054 374.755 47.8294L374.701 48.3814C374.669 48.5334 374.577 48.6094 374.425 48.6094H373.735V39.7714H374.809V43.4074ZM384.518 44.9074C384.518 44.6594 384.482 44.4334 384.41 44.2294C384.342 44.0214 384.24 43.8434 384.104 43.6954C383.972 43.5434 383.81 43.4274 383.618 43.3474C383.426 43.2634 383.208 43.2214 382.964 43.2214C382.452 43.2214 382.046 43.3714 381.746 43.6714C381.45 43.9674 381.266 44.3794 381.194 44.9074H384.518ZM385.382 47.7574C385.25 47.9174 385.092 48.0574 384.908 48.1774C384.724 48.2934 384.526 48.3894 384.314 48.4654C384.106 48.5414 383.89 48.5974 383.666 48.6334C383.442 48.6734 383.22 48.6934 383 48.6934C382.58 48.6934 382.192 48.6234 381.836 48.4834C381.484 48.3394 381.178 48.1314 380.918 47.8594C380.662 47.5834 380.462 47.2434 380.318 46.8394C380.174 46.4354 380.102 45.9714 380.102 45.4474C380.102 45.0234 380.166 44.6274 380.294 44.2594C380.426 43.8914 380.614 43.5734 380.858 43.3054C381.102 43.0334 381.4 42.8214 381.752 42.6694C382.104 42.5134 382.5 42.4354 382.94 42.4354C383.304 42.4354 383.64 42.4974 383.948 42.6214C384.26 42.7414 384.528 42.9174 384.752 43.1494C384.98 43.3774 385.158 43.6614 385.286 44.0014C385.414 44.3374 385.478 44.7214 385.478 45.1534C385.478 45.3214 385.46 45.4334 385.424 45.4894C385.388 45.5454 385.32 45.5734 385.22 45.5734H381.158C381.17 45.9574 381.222 46.2914 381.314 46.5754C381.41 46.8594 381.542 47.0974 381.71 47.2894C381.878 47.4774 382.078 47.6194 382.31 47.7154C382.542 47.8074 382.802 47.8534 383.09 47.8534C383.358 47.8534 383.588 47.8234 383.78 47.7634C383.976 47.6994 384.144 47.6314 384.284 47.5594C384.424 47.4874 384.54 47.4214 384.632 47.3614C384.728 47.2974 384.81 47.2654 384.878 47.2654C384.966 47.2654 385.034 47.2994 385.082 47.3674L385.382 47.7574ZM387.804 43.7494C387.996 43.3334 388.232 43.0094 388.512 42.7774C388.792 42.5414 389.134 42.4234 389.538 42.4234C389.666 42.4234 389.788 42.4374 389.904 42.4654C390.024 42.4934 390.13 42.5374 390.222 42.5974L390.144 43.3954C390.12 43.4954 390.06 43.5454 389.964 43.5454C389.908 43.5454 389.826 43.5334 389.718 43.5094C389.61 43.4854 389.488 43.4734 389.352 43.4734C389.16 43.4734 388.988 43.5014 388.836 43.5574C388.688 43.6134 388.554 43.6974 388.434 43.8094C388.318 43.9174 388.212 44.0534 388.116 44.2174C388.024 44.3774 387.94 44.5614 387.864 44.7694V48.6094H386.79V42.5314H387.402C387.518 42.5314 387.598 42.5534 387.642 42.5974C387.686 42.6414 387.716 42.7174 387.732 42.8254L387.804 43.7494ZM394.665 43.5334C394.617 43.6214 394.543 43.6654 394.443 43.6654C394.383 43.6654 394.315 43.6434 394.239 43.5994C394.163 43.5554 394.069 43.5074 393.957 43.4554C393.849 43.3994 393.719 43.3494 393.567 43.3054C393.415 43.2574 393.235 43.2334 393.027 43.2334C392.847 43.2334 392.685 43.2574 392.541 43.3054C392.397 43.3494 392.273 43.4114 392.169 43.4914C392.069 43.5714 391.991 43.6654 391.935 43.7734C391.883 43.8774 391.857 43.9914 391.857 44.1154C391.857 44.2714 391.901 44.4014 391.989 44.5054C392.081 44.6094 392.201 44.6994 392.349 44.7754C392.497 44.8514 392.665 44.9194 392.853 44.9794C393.041 45.0354 393.233 45.0974 393.429 45.1654C393.629 45.2294 393.823 45.3014 394.011 45.3814C394.199 45.4614 394.367 45.5614 394.515 45.6814C394.663 45.8014 394.781 45.9494 394.869 46.1254C394.961 46.2974 395.007 46.5054 395.007 46.7494C395.007 47.0294 394.957 47.2894 394.857 47.5294C394.757 47.7654 394.609 47.9714 394.413 48.1474C394.217 48.3194 393.977 48.4554 393.693 48.5554C393.409 48.6554 393.081 48.7054 392.709 48.7054C392.285 48.7054 391.901 48.6374 391.557 48.5014C391.213 48.3614 390.921 48.1834 390.681 47.9674L390.933 47.5594C390.965 47.5074 391.003 47.4674 391.047 47.4394C391.091 47.4114 391.147 47.3974 391.215 47.3974C391.287 47.3974 391.363 47.4254 391.443 47.4814C391.523 47.5374 391.619 47.5994 391.731 47.6674C391.847 47.7354 391.987 47.7974 392.151 47.8534C392.315 47.9094 392.519 47.9374 392.763 47.9374C392.971 47.9374 393.153 47.9114 393.309 47.8594C393.465 47.8034 393.595 47.7294 393.699 47.6374C393.803 47.5454 393.879 47.4394 393.927 47.3194C393.979 47.1994 394.005 47.0714 394.005 46.9354C394.005 46.7674 393.959 46.6294 393.867 46.5214C393.779 46.4094 393.661 46.3154 393.513 46.2394C393.365 46.1594 393.195 46.0914 393.003 46.0354C392.815 45.9754 392.621 45.9134 392.421 45.8494C392.225 45.7854 392.031 45.7134 391.839 45.6334C391.651 45.5494 391.483 45.4454 391.335 45.3214C391.187 45.1974 391.067 45.0454 390.975 44.8654C390.887 44.6814 390.843 44.4594 390.843 44.1994C390.843 43.9674 390.891 43.7454 390.987 43.5334C391.083 43.3174 391.223 43.1294 391.407 42.9694C391.591 42.8054 391.817 42.6754 392.085 42.5794C392.353 42.4834 392.659 42.4354 393.003 42.4354C393.403 42.4354 393.761 42.4994 394.077 42.6274C394.397 42.7514 394.673 42.9234 394.905 43.1434L394.665 43.5334Z" fill="#333333"/>
<defs>
<linearGradient id="paint0_linear_242_2128" x1="175.413" y1="-13.324" x2="217.993" y2="251.343" gradientUnits="userSpaceOnUse">
<stop offset="0.0677083" stop-color="#FFA646"/>
<stop offset="0.326802" stop-color="#FFE2CB"/>
<stop offset="0.527939" stop-color="#FDB73E"/>
<stop offset="0.70372" stop-color="#FFDE88"/>
<stop offset="1" stop-color="#FFC93F"/>
</linearGradient>
<linearGradient id="paint1_linear_242_2128" x1="153.353" y1="-41.3658" x2="339.414" y2="247.737" gradientUnits="userSpaceOnUse">
<stop offset="0.0513528" stop-color="white"/>
<stop offset="0.275385" stop-color="white" stop-opacity="0.78"/>
<stop offset="0.480833" stop-color="white"/>
<stop offset="0.716896" stop-color="white" stop-opacity="0.72"/>
<stop offset="0.943053" stop-color="white"/>
</linearGradient>
</defs>
</svg>
