<svg width="14" height="18" viewBox="0 0 14 18" fill="none" xmlns="http://www.w3.org/2000/svg">
<g opacity="0.4">
<path d="M6.99993 0.722931C3.63674 0.722931 0.900879 3.45879 0.900879 6.82198C0.900879 8.89566 1.93772 10.7167 3.51476 11.8232V13.7923C3.51476 14.2715 3.90684 14.6636 4.38605 14.6636H9.61381C10.093 14.6636 10.4851 14.2715 10.4851 13.7923V11.8232C12.0621 10.7167 13.099 8.89566 13.099 6.82198C13.099 3.45879 10.3631 0.722931 6.99993 0.722931ZM9.48311 10.3943L8.74251 10.9171V12.921H5.25734V10.9171L4.51674 10.3943C3.3405 9.57526 2.64346 8.24219 2.64346 6.82198C2.64346 4.41721 4.59516 2.46552 6.99993 2.46552C9.4047 2.46552 11.3564 4.41721 11.3564 6.82198C11.3564 8.24219 10.6594 9.57526 9.48311 10.3943Z" fill="black"/>
<path fill-rule="evenodd" clip-rule="evenodd" d="M9.61399 17.2771H4.38623V15.5345H9.61399V17.2771Z" fill="black"/>
</g>
</svg>
