<svg width="51" height="53" viewBox="0 0 51 53" fill="none" xmlns="http://www.w3.org/2000/svg">
<rect width="50.6268" height="52.0357" rx="25.3134" fill="#FFF7F1"/>
<path d="M25.3159 16.5154C26.3512 16.5154 27.1897 15.6769 27.1897 14.6416C27.1897 13.6064 26.3512 12.7679 25.3159 12.7679C24.2807 12.7679 23.4422 13.6064 23.4422 14.6416C23.4422 15.6769 24.2807 16.5154 25.3159 16.5154ZM25.3159 17.4523C24.0652 17.4523 21.5684 18.0801 21.5684 19.3261V20.263H29.0635V19.3261C29.0635 18.0801 26.5667 17.4523 25.3159 17.4523Z" fill="#F58024"/>
<path d="M16.4551 31.1925C17.4904 31.1925 18.3289 30.3539 18.3289 29.3187C18.3289 28.2834 17.4904 27.4449 16.4551 27.4449C15.4198 27.4449 14.5813 28.2834 14.5813 29.3187C14.5813 30.3539 15.4198 31.1925 16.4551 31.1925ZM16.4551 32.1294C15.2043 32.1294 12.7075 32.7571 12.7075 34.0032V34.9401H20.2027V34.0032C20.2027 32.7571 17.7059 32.1294 16.4551 32.1294Z" fill="#F58024"/>
<path d="M34.1714 31.1925C35.2067 31.1925 36.0452 30.3539 36.0452 29.3187C36.0452 28.2834 35.2067 27.4449 34.1714 27.4449C33.1361 27.4449 32.2976 28.2834 32.2976 29.3187C32.2976 30.3539 33.1361 31.1925 34.1714 31.1925ZM34.1714 32.1294C32.9207 32.1294 30.4238 32.7571 30.4238 34.0032V34.9401H37.919V34.0032C37.919 32.7571 35.4222 32.1294 34.1714 32.1294Z" fill="#F58024"/>
<path d="M29.5219 27.2538C29.5219 29.5791 27.6368 31.4641 25.3115 31.4641C22.9862 31.4641 21.1012 29.5791 21.1012 27.2538C21.1012 24.9285 22.9862 23.0435 25.3115 23.0435C27.6368 23.0435 29.5219 24.9285 29.5219 27.2538Z" stroke="#F58024" stroke-width="1.8"/>
</svg>
