<svg width="18" height="18" viewBox="0 0 18 18" fill="none" xmlns="http://www.w3.org/2000/svg">
<g opacity="0.4">
<path fill-rule="evenodd" clip-rule="evenodd" d="M4.11536 2.51922C3.24267 2.51922 2.53522 3.22045 2.53522 4.08548C2.53522 4.9505 3.24267 5.65173 4.11536 5.65173C4.98805 5.65173 5.6955 4.9505 5.6955 4.08548C5.6955 3.22045 4.98805 2.51922 4.11536 2.51922ZM0.711914 4.08548C0.711914 2.22232 2.23569 0.711929 4.11536 0.711929C5.99503 0.711929 7.51881 2.22232 7.51881 4.08548C7.51881 5.94863 5.99503 7.45902 4.11536 7.45902C2.23569 7.45902 0.711914 5.94863 0.711914 4.08548Z" fill="black"/>
<path fill-rule="evenodd" clip-rule="evenodd" d="M13.8849 12.3483C13.0122 12.3483 12.3048 13.0495 12.3048 13.9145C12.3048 14.7796 13.0122 15.4808 13.8849 15.4808C14.7576 15.4808 15.465 14.7796 15.465 13.9145C15.465 13.0495 14.7576 12.3483 13.8849 12.3483ZM10.4814 13.9145C10.4814 12.0514 12.0052 10.541 13.8849 10.541C15.7646 10.541 17.2883 12.0514 17.2883 13.9145C17.2883 15.7777 15.7646 17.2881 13.8849 17.2881C12.0052 17.2881 10.4814 15.7777 10.4814 13.9145Z" fill="black"/>
<path fill-rule="evenodd" clip-rule="evenodd" d="M15.8708 3.42233L3.38621 15.9044L2.02197 14.5399L14.5066 2.05781L15.8708 3.42233Z" fill="black"/>
</g>
</svg>
