<svg width="51" height="53" viewBox="0 0 51 53" fill="none" xmlns="http://www.w3.org/2000/svg">
<rect width="50.6268" height="52.0357" rx="25.3134" fill="#FFF7F1"/>
<path fill-rule="evenodd" clip-rule="evenodd" d="M18.5373 15.9583C19.8448 15.9583 21.0792 16.3014 22.0089 16.9627C22.9523 17.6338 23.5854 18.6428 23.5854 19.8885C23.5854 21.1341 22.9523 22.1432 22.0089 22.8142C21.1996 23.3898 20.1596 23.7244 19.0414 23.8014L23.4028 28.9396L22.2307 29.9345L16.8091 23.5474C16.6153 23.319 16.5718 22.9989 16.6976 22.727C16.8234 22.4552 17.0957 22.2812 17.3952 22.2812H18.5373C19.5933 22.2812 20.4986 22.0018 21.1178 21.5614C21.7232 21.1308 22.048 20.5591 22.048 19.8885C22.048 19.2179 21.7232 18.6462 21.1178 18.2156C20.4986 17.7752 19.5933 17.4957 18.5373 17.4957H17.3952V15.9583H18.5373Z" fill="#F58024"/>
<path fill-rule="evenodd" clip-rule="evenodd" d="M16.6104 19.1231H25.4862V20.6605H16.6104V19.1231Z" fill="#F58024"/>
<path fill-rule="evenodd" clip-rule="evenodd" d="M16.6226 15.9531H25.4984V17.4906H16.6226V15.9531Z" fill="#F58024"/>
<path d="M30.8881 24.078V26.1393H32.9244L29.5855 30.6119L27.5406 28.8091L20.8882 36.6327L22.6575 38.1043L27.782 32.0277L29.8829 33.8689L34.909 27.1699V29.4874H36.9195V24.078H30.8881Z" fill="#F58024"/>
</svg>
