<svg width="174" height="105" viewBox="0 0 174 105" fill="none" xmlns="http://www.w3.org/2000/svg">
<g opacity="0.8">
<path d="M158.82 76.3219C158.82 76.3219 147.333 77.3564 133.493 66.7728C133.493 66.7728 131.475 73.9293 130.125 75.7514C129.128 77.4764 127.611 78.9478 125.729 80.0172C117.51 84.5257 105.571 78.757 101.812 77.0839C100.076 76.3133 99.8152 76.2665 93.3868 73.3332C91.5903 72.5116 82.0355 67.8584 82.0355 67.8584C79.6669 66.9728 75.6121 67.1218 75.6121 67.1218L72.6363 71.2855C71.4865 72.8939 69.9366 74.2698 68.0948 75.3171C70.087 75.1767 72.0642 75.0702 74.0464 74.9638C76.0236 74.8446 78.0008 74.7424 79.968 74.5891C80.9566 74.5253 81.9401 74.4401 82.9187 74.3422C83.8973 74.2571 84.8708 74.1336 85.8443 74.0016C86.8125 73.8718 87.771 73.6941 88.7148 73.4695C89.6704 73.2716 90.5652 72.9029 91.3394 72.3881C90.6824 73.0483 89.8378 73.5553 88.8854 73.8611C87.9517 74.1938 86.9864 74.4587 85.9999 74.653C84.0459 75.0428 82.0596 75.3046 80.0583 75.4363C78.061 75.5768 76.0638 75.6449 74.0665 75.6237C72.0706 75.6195 70.0767 75.5172 68.0948 75.3171H68.0898C66.3116 76.3308 64.3002 77.0128 62.1883 77.318L39.6663 80.6004C39.6663 80.6004 44.9957 86.4116 39.4907 98.5704C39.4907 98.5704 50.6563 97.6126 57.6417 99.3964C64.6221 101.176 75.3361 101.176 86.6774 97.7019C98.0186 94.228 104 95.1178 111.563 96.3651C119.125 97.6125 146.635 108.928 156.296 88.0805C156.296 88.0805 159.553 81.3114 158.82 76.3219ZM43.7362 86.2371C43.5412 86.2312 43.3565 86.1613 43.221 86.0422C43.0855 85.9231 43.0098 85.764 43.0098 85.5985C43.0098 85.433 43.0855 85.2739 43.221 85.1548C43.3565 85.0357 43.5412 84.9658 43.7362 84.9599C43.9312 84.9658 44.1159 85.0357 44.2514 85.1548C44.3869 85.2739 44.4626 85.433 44.4626 85.5985C44.4626 85.764 44.3869 85.9231 44.2514 86.0422C44.1159 86.1613 43.9312 86.2312 43.7362 86.2371ZM43.2545 81.486C43.4498 81.4914 43.635 81.5611 43.7709 81.6803C43.9068 81.7994 43.9828 81.9588 43.9828 82.1246C43.9828 82.2904 43.9068 82.4497 43.7709 82.5689C43.635 82.688 43.4498 82.7577 43.2545 82.7632C43.0591 82.7577 42.8739 82.688 42.738 82.5689C42.6021 82.4497 42.5261 82.2904 42.5261 82.1246C42.5261 81.9588 42.6021 81.7995 42.738 81.6803C42.8739 81.5611 43.0591 81.4914 43.2544 81.486H43.2545ZM41.8092 97.885C41.6142 97.8791 41.4295 97.8093 41.294 97.6901C41.1586 97.571 41.0828 97.412 41.0828 97.2464C41.0828 97.0809 41.1586 96.9219 41.294 96.8027C41.4295 96.6836 41.6142 96.6138 41.8092 96.6078C42.0042 96.6138 42.1889 96.6836 42.3243 96.8027C42.4598 96.9219 42.5355 97.0809 42.5355 97.2464C42.5355 97.412 42.4598 97.571 42.3243 97.6901C42.1888 97.8093 42.0042 97.8791 41.8092 97.885H41.8092ZM43.0135 94.4111C42.8186 94.4052 42.6339 94.3353 42.4984 94.2162C42.3629 94.0971 42.2872 93.938 42.2872 93.7725C42.2872 93.607 42.3629 93.4479 42.4984 93.3288C42.6339 93.2097 42.8186 93.1398 43.0135 93.1339C43.2085 93.1398 43.3932 93.2097 43.5287 93.3288C43.6642 93.4479 43.74 93.607 43.74 93.7725C43.7399 93.938 43.6642 94.0971 43.5287 94.2162C43.3932 94.3354 43.2085 94.4052 43.0135 94.4111ZM43.8566 90.1197C43.6616 90.1139 43.4769 90.044 43.3414 89.9249C43.2059 89.8058 43.1302 89.6467 43.1302 89.4811C43.1302 89.3156 43.2059 89.1565 43.3414 89.0374C43.4769 88.9183 43.6616 88.8484 43.8566 88.8426C44.0516 88.8484 44.2363 88.9183 44.3719 89.0374C44.5074 89.1565 44.5831 89.3156 44.5831 89.4811C44.5831 89.6467 44.5074 89.8058 44.3718 89.9249C44.2363 90.044 44.0516 90.1139 43.8566 90.1197H43.8566Z" fill="#020202"/>
<path d="M115.773 56.0565C115.989 56.368 116.249 56.646 116.547 56.8815C116.437 56.8527 115.546 56.6022 115.585 56.2844V56.2651C115.619 56.1748 115.686 56.1003 115.773 56.0565Z" fill="#020202"/>
<path d="M157.824 57.7894C157.478 52.9433 156.422 48.1559 154.683 43.5439C151.562 35.3386 148.565 32.1927 148.565 32.1927C148.565 32.1927 147.342 33.5856 145.747 32.5963C144.151 31.6069 139.683 30.2705 139.683 30.2705C131.905 28.4654 129.077 31.3509 129.077 31.3509C127.672 33.0261 126.157 34.6285 124.539 36.15C125.206 35.7363 125.925 35.3898 126.681 35.1173C127.717 34.7314 128.819 34.4996 129.942 34.4317C130.515 34.4028 131.09 34.4304 131.656 34.5142C132.228 34.6054 132.781 34.7661 133.302 34.9915C134.318 35.4433 135.137 36.1733 135.632 37.0699C134.903 36.4273 134.019 35.9346 133.044 35.6276C132.069 35.3207 131.028 35.2071 129.996 35.2952C128.959 35.3554 127.931 35.5095 126.93 35.7552C126 35.9765 125.066 36.2411 124.127 36.5362L124.122 36.5405C118.64 41.5609 114.619 43.0102 114.619 43.0102C112.869 49.354 113.819 53.1812 115.006 55.3291C115.006 55.1685 115.021 55.0079 115.031 54.8474C115.112 54.1194 115.252 53.3974 115.449 52.6865C115.842 51.2757 116.33 49.8862 116.91 48.5253C117.491 47.1714 118.118 45.8307 118.814 44.5202C119.497 43.202 120.262 41.9172 121.105 40.6714C120.136 43.4441 118.963 46.1301 117.844 48.8247C117.273 50.1698 116.716 51.5149 116.199 52.8687C115.946 53.5457 115.697 54.2269 115.513 54.9168C115.422 55.2246 115.357 55.5379 115.32 55.8541C115.477 56.0981 115.649 56.3342 115.836 56.5614C116.381 56.3201 116.967 56.1561 117.571 56.0754C121.801 55.3204 146.358 59.6595 134.822 61.968L134.186 64.1288C150.21 68.9453 158.928 62.6752 158.928 62.6752C158.296 61.9506 157.978 59.8331 157.824 57.7894ZM117.73 54.5958C117.537 54.5898 117.354 54.5186 117.22 54.3972C117.086 54.2758 117.011 54.1136 117.011 53.9449C117.011 53.7762 117.086 53.6141 117.22 53.4927C117.354 53.3712 117.537 53.3 117.73 53.294C117.923 53.3 118.106 53.3712 118.24 53.4927C118.375 53.6141 118.45 53.7762 118.45 53.9449C118.45 54.1136 118.375 54.2758 118.24 54.3972C118.106 54.5186 117.923 54.5898 117.73 54.5958ZM121.756 54.8301C121.563 54.8241 121.38 54.7529 121.246 54.6315C121.111 54.5101 121.036 54.3479 121.036 54.1792C121.036 54.0105 121.111 53.8484 121.246 53.727C121.38 53.6056 121.563 53.5344 121.756 53.5284C121.949 53.5344 122.132 53.6056 122.266 53.727C122.4 53.8484 122.475 54.0105 122.475 54.1792C122.475 54.3479 122.4 54.51 122.266 54.6314C122.132 54.7528 121.949 54.824 121.756 54.8301V54.8301ZM125.961 55.4549C125.767 55.4489 125.585 55.3777 125.45 55.2563C125.316 55.1349 125.241 54.9728 125.241 54.8041C125.241 54.6353 125.316 54.4732 125.45 54.3518C125.585 54.2304 125.767 54.1592 125.961 54.1532C126.154 54.1592 126.337 54.2304 126.471 54.3518C126.605 54.4732 126.68 54.6354 126.68 54.8041C126.68 54.9728 126.605 55.1349 126.471 55.2563C126.337 55.3777 126.154 55.4489 125.961 55.4549ZM130.344 56.1579C130.151 56.1519 129.968 56.0807 129.834 55.9593C129.7 55.8379 129.625 55.6757 129.625 55.507C129.625 55.3383 129.7 55.1761 129.834 55.0547C129.968 54.9333 130.151 54.8621 130.344 54.8561C130.537 54.8621 130.72 54.9333 130.855 55.0547C130.989 55.1762 131.064 55.3383 131.064 55.507C131.064 55.6757 130.989 55.8379 130.855 55.9593C130.72 56.0807 130.537 56.1519 130.344 56.1579ZM139.872 49.0807C139.807 49.9919 139.758 50.9075 139.653 51.8144L139.464 53.1769C139.405 53.6282 139.335 54.0795 139.236 54.5307C139.052 55.4246 138.883 56.3271 138.649 57.2123C138.406 58.1018 138.162 58.987 137.874 59.8592C137.944 58.948 138.058 58.0454 138.167 57.1472C138.287 56.2447 138.351 55.3421 138.465 54.4439C138.654 52.6432 138.803 50.8468 138.878 49.0504C138.955 47.259 138.91 45.4652 138.744 43.6785C138.679 43.2359 138.649 42.7846 138.555 42.3464L138.436 41.6825C138.386 41.4656 138.326 41.2486 138.272 41.0316C138.08 40.1476 137.715 39.2991 137.193 38.5236C137.564 38.8514 137.871 39.2295 138.103 39.6431C138.232 39.8449 138.346 40.0536 138.446 40.2679C138.557 40.4772 138.654 40.6916 138.739 40.9101C139.087 41.7806 139.345 42.6766 139.509 43.5874C139.823 45.4049 139.945 47.2438 139.872 49.0807V49.0807Z" fill="#F58024"/>
<path d="M116.547 56.9731L114.729 64.1864L113.808 68.4215L112.723 68.2016C103.49 66.5715 88.2637 61.0091 88.2637 61.0091L84.7617 57.222C86.9461 57.6533 87.6148 55.6043 87.6148 55.6043C90.1559 56.1394 90.25 53.9575 90.25 53.9575C92.484 54.1483 92.0926 51.4812 92.0926 51.4812C94.4752 51.701 93.7074 49.3657 93.7074 49.3657C91.4116 47.4731 90.0908 44.9036 90.0271 42.2063C89.8887 42.1957 89.7494 42.1957 89.611 42.2063C89.611 42.2063 96.6547 32.1019 103.064 34.0473L109.479 35.9927C108.735 37.2516 108.334 38.6328 108.305 40.037C108.889 44.579 112.426 43.7826 113.654 43.3595C113.301 44.1827 113.023 45.0271 112.822 45.8856C112.574 46.9086 112.416 47.9457 112.352 48.9883C112.337 49.5109 112.337 50.0336 112.367 50.5604C112.408 51.0889 112.494 51.6142 112.624 52.1324C112.751 52.6595 112.96 53.1701 113.248 53.6506C113.471 54.0244 113.779 54.3583 114.155 54.6337C114.2 54.6691 114.248 54.7023 114.298 54.7332L114.303 54.7374C114.769 55.0982 116.547 56.9731 116.547 56.9731Z" fill="#020202"/>
<path d="M98.3307 10.7163C98.4046 11.5439 98.5276 12.3675 98.6994 13.1837C98.8644 13.9893 99.1018 14.782 99.4093 15.5546C99.5599 15.9335 99.7395 16.3031 99.9467 16.6608C100.198 17.0709 100.347 17.5239 100.381 17.9889C100.46 18.885 100.306 19.7851 99.9296 20.6208L99.9183 20.6411L99.9047 20.6628C99.772 20.874 99.6785 21.1024 99.6276 21.3395C99.6016 21.4258 99.5955 21.5158 99.6095 21.6043C99.6236 21.6927 99.6575 21.7777 99.7094 21.8545C99.855 21.9895 100.047 22.0786 100.256 22.1078C100.397 22.1188 100.531 22.1418 100.677 22.1478L101.126 22.1462L101.155 22.1461C101.242 22.1458 101.327 22.1668 101.402 22.2066C101.476 22.2465 101.536 22.3036 101.576 22.3718C101.76 22.6875 101.978 23.012 102.199 23.3172C102.411 23.6217 102.653 23.9093 102.921 24.177C103.048 24.3023 103.188 24.4166 103.34 24.518C103.527 24.6417 103.703 24.7764 103.869 24.9212C104.207 25.215 104.494 25.5507 104.721 25.9177L104.697 25.8837C104.977 26.2348 105.302 26.5557 105.667 26.8398C106.033 27.1275 106.449 27.3619 106.899 27.5343C107.354 27.705 107.848 27.7768 108.341 27.7435C108.851 27.7037 109.348 27.5777 109.804 27.3723C109.383 27.6574 108.896 27.8589 108.377 27.9628C107.839 28.0656 107.28 28.0462 106.752 27.9067C106.226 27.7642 105.732 27.5433 105.291 27.2536C104.843 26.9686 104.442 26.6297 104.101 26.2468L104.078 26.2126C103.864 25.9251 103.606 25.6652 103.31 25.4405C103.163 25.3237 103.007 25.215 102.844 25.1152C102.646 24.9934 102.462 24.8554 102.293 24.7032C101.975 24.4128 101.687 24.0985 101.431 23.7639C101.178 23.4366 100.947 23.0974 100.736 22.7478L101.186 22.9734L100.641 22.982C100.456 22.9769 100.262 22.9505 100.073 22.933C99.6231 22.8696 99.215 22.6636 98.9259 22.3538C98.7993 22.1847 98.713 21.9947 98.672 21.7955C98.6311 21.5962 98.6365 21.3917 98.6878 21.1943C98.7622 20.8578 98.9005 20.5347 99.097 20.2385L99.0722 20.2803C99.3976 19.5634 99.5532 18.7956 99.5295 18.0239C99.5151 17.6547 99.4173 17.2917 99.2419 16.956C99.0489 16.5594 98.8866 16.1518 98.7561 15.7359C98.5067 14.916 98.3505 14.0764 98.2897 13.2294C98.2201 12.3922 98.2338 11.5513 98.3307 10.7163Z" fill="#020202"/>
<path d="M98.6884 10.413C100.081 11.032 101.519 11.6467 102.957 12.2125C104.371 12.8047 105.85 13.2712 107.373 13.6047C107.551 13.6347 107.732 13.6502 107.914 13.6509C108.079 13.6469 108.231 13.6056 108.244 13.5677C108.247 13.5444 108.25 13.5744 108.273 13.5156L108.33 13.3796C108.368 13.2877 108.416 13.1992 108.473 13.1155C108.586 12.9427 108.732 12.7875 108.904 12.6559C109.252 12.4068 109.673 12.2452 110.12 12.1887C110.338 12.1577 110.559 12.1472 110.78 12.1575C111.023 12.1856 111.256 12.2561 111.467 12.3647C111.836 12.5776 112.148 12.8561 112.383 13.1818C112.618 13.5075 112.77 13.8727 112.829 14.2533C112.966 14.9637 112.981 15.6876 112.875 16.4019L112.878 16.3467C112.906 16.8153 112.886 17.285 112.818 17.7505C112.786 18.0028 112.715 18.2501 112.607 18.4861C112.577 18.5561 112.537 18.6225 112.488 18.6839C112.463 18.7176 112.441 18.7504 112.411 18.7838C112.373 18.8184 112.333 18.8523 112.292 18.8846C112.199 18.9566 112.087 19.0081 111.967 19.0347C111.844 19.0549 111.718 19.0558 111.595 19.0372L112.026 18.866C110.893 20.9486 110.438 23.2596 110.71 25.5498C110.787 26.099 110.93 26.7137 111.003 27.3016C111.087 27.8964 111.146 28.4954 111.165 29.0967C111.184 29.699 111.168 30.3017 111.117 30.9026C111.065 31.5086 110.968 32.0959 110.876 32.6828C110.705 33.8719 110.437 35.049 110.074 36.2052C109.974 36.5101 109.84 36.806 109.676 37.0892L109.408 37.4748C109.332 37.59 109.266 37.7095 109.208 37.8325C108.979 38.3361 108.889 38.8792 108.944 39.4184C109.108 40.5031 109.498 41.6842 110.36 42.4658C110.786 42.8591 111.354 43.1141 111.971 43.1883C112.61 43.255 113.258 43.2025 113.872 43.0342C115.144 42.6711 116.341 42.1355 117.418 41.4473C118.519 40.7641 119.567 40.0199 120.557 39.2193C122.552 37.6212 124.428 35.915 126.174 34.1111C127.063 33.2124 127.902 32.311 128.78 31.3843C129.265 30.9385 129.846 30.5793 130.49 30.3271C130.806 30.1985 131.13 30.0851 131.461 29.9872C131.798 29.9152 132.131 29.8166 132.474 29.7675C132.818 29.727 133.161 29.6651 133.507 29.643L134.548 29.6037C135.239 29.6148 135.93 29.6665 136.614 29.7583C136.954 29.8081 137.299 29.8427 137.636 29.9056L138.64 30.121C139.308 30.2666 139.967 30.4418 140.614 30.6459C141.277 30.8162 141.894 31.0802 142.533 31.2997C143.176 31.5149 143.787 31.7867 144.401 32.052L145.324 32.4486L145.555 32.5479C145.624 32.5752 145.685 32.6036 145.752 32.6273C145.885 32.6747 146.023 32.7092 146.164 32.7302C146.442 32.7758 146.728 32.7656 147 32.7004C147.273 32.6352 147.525 32.5167 147.736 32.3541C147.942 32.1774 148.108 31.9683 148.224 31.738C148.292 31.6237 148.344 31.503 148.38 31.3783L148.439 31.194L148.464 31.0036C148.508 30.4785 148.394 29.9523 148.133 29.4767C147.515 28.4828 146.684 27.6003 145.683 26.8767C143.622 25.3801 141.376 24.0851 138.987 23.0154C136.559 21.8691 134.294 20.4825 132.235 18.8835C131.208 18.083 130.238 17.2291 129.33 16.3266C128.416 15.4291 127.567 14.4838 126.787 13.4959C126.003 12.5109 125.287 11.4864 124.643 10.4279C124.328 9.89539 124.011 9.36389 123.735 8.8154C123.592 8.54368 123.446 8.27068 123.314 7.99938L122.88 7.22241L122.452 6.44274L121.934 5.70995C121.755 5.4698 121.601 5.21211 121.401 4.9856L120.792 4.31142L120.487 3.97357L120.14 3.67064L119.446 3.06433L118.675 2.5349C118.423 2.35418 118.151 2.19369 117.865 2.05542C115.618 0.837859 112.93 0.384221 110.32 0.78207L110.398 0.756045C109.13 1.33597 107.876 1.9643 106.648 2.61794C105.421 3.27472 104.218 3.96472 103.061 4.70796C101.889 5.43074 100.802 6.24999 99.8124 7.15424C99.3244 7.60512 98.9207 8.1192 98.6158 8.67791C98.4589 8.94918 98.3833 9.25028 98.396 9.55348C98.4087 9.85668 98.5092 10.1522 98.6884 10.413ZM98.6222 10.4767C98.4119 10.2058 98.2851 9.8929 98.2537 9.56763C98.2224 9.24235 98.2877 8.91555 98.4433 8.61826C98.731 8.02962 99.1233 7.48361 99.606 7.00004C100.568 6.04673 101.634 5.17635 102.79 4.4011C103.935 3.62072 105.128 2.89606 106.344 2.20408C107.563 1.51415 108.798 0.854952 110.073 0.23222L110.077 0.230545C110.1 0.219341 110.125 0.21112 110.151 0.206141C111.538 -0.048124 112.969 -0.0673611 114.365 0.149484C115.76 0.356621 117.097 0.791018 118.304 1.42964C118.615 1.57492 118.911 1.74343 119.187 1.93324L120.027 2.49173L120.784 3.12917L121.162 3.44949L121.493 3.8033L122.156 4.51249C122.374 4.75109 122.541 5.01807 122.736 5.2699L123.298 6.03775L123.764 6.84794L124.225 7.66084C124.359 7.93214 124.5 8.19388 124.641 8.45801C124.911 8.99015 125.222 9.5054 125.529 10.0218C126.159 11.0479 126.859 12.0408 127.625 12.9951C128.386 13.9521 129.215 14.8675 130.106 15.7361C130.991 16.6096 131.936 17.4357 132.937 18.2097C134.929 19.7703 137.118 21.132 139.462 22.2694C141.902 23.3885 144.192 24.738 146.29 26.2934C147.375 27.0942 148.266 28.0741 148.91 29.176C149.223 29.7747 149.349 30.434 149.275 31.0881L149.235 31.3363C149.212 31.4173 149.182 31.497 149.155 31.5771C149.105 31.7378 149.034 31.8932 148.945 32.0406C148.78 32.3485 148.548 32.626 148.261 32.8578C147.959 33.0855 147.6 33.25 147.213 33.3385C146.825 33.4271 146.42 33.4374 146.027 33.3687C145.833 33.3367 145.644 33.2864 145.463 33.2187C145.373 33.1859 145.284 33.1431 145.2 33.1066L144.977 33.0044L144.081 32.5953C143.485 32.3214 142.892 32.0403 142.269 31.8167C141.65 31.5888 141.049 31.3145 140.408 31.1355C139.782 30.9223 139.144 30.7373 138.496 30.5811L137.523 30.3514C137.197 30.284 136.865 30.245 136.535 30.1902C135.876 30.0887 135.21 30.026 134.541 30.0023L133.54 30.0213C133.208 30.0361 132.88 30.0898 132.549 30.1217C131.23 30.2729 130.001 30.787 129.045 31.5882C128.188 32.4787 127.309 33.4074 126.417 34.2927C124.644 36.0897 122.768 37.8086 120.795 39.4429C119.804 40.2618 118.753 41.0245 117.649 41.7262C116.553 42.4655 115.327 43.0488 114.019 43.4539C113.337 43.6572 112.612 43.731 111.894 43.6703C111.148 43.5957 110.453 43.3041 109.923 42.8432C109.415 42.3925 109.021 41.8546 108.767 41.2641C108.503 40.6902 108.321 40.0907 108.224 39.4788C108.14 38.84 108.228 38.1929 108.484 37.5891C108.549 37.4371 108.627 37.2891 108.715 37.1461L108.963 36.7681C109.094 36.5204 109.204 36.2641 109.289 36.0016C109.629 34.8786 109.876 33.7364 110.031 32.5834C110.413 30.2758 110.357 27.9296 109.864 25.6378C109.712 24.4273 109.773 23.204 110.044 22.0093C110.305 20.8166 110.742 19.6579 111.343 18.5616L111.774 18.3903C111.798 18.3753 111.773 18.4052 111.798 18.3798C111.804 18.3737 111.812 18.3688 111.82 18.3656L111.849 18.3247C111.875 18.2946 111.895 18.2609 111.909 18.225C111.992 18.0433 112.047 17.8529 112.073 17.6589C112.137 17.2337 112.162 16.8049 112.148 16.3763L112.147 16.3635C112.147 16.3493 112.148 16.3351 112.15 16.3209C112.266 15.6716 112.273 15.0111 112.17 14.3601C112.136 14.056 112.028 13.7616 111.853 13.4962C111.679 13.2309 111.441 13.0005 111.156 12.8204C111.026 12.7503 110.883 12.7001 110.733 12.6721C110.558 12.6606 110.381 12.6654 110.206 12.6863C109.862 12.7209 109.535 12.8362 109.26 13.0198C109.132 13.1138 109.022 13.2256 108.935 13.3505C108.889 13.4132 108.851 13.4799 108.82 13.5496L108.772 13.6547C108.743 13.7164 108.707 13.7758 108.666 13.8322C108.573 13.9216 108.457 13.9913 108.328 14.0358C108.199 14.0803 108.059 14.0985 107.921 14.089C107.705 14.0845 107.491 14.0621 107.28 14.0222C106.493 13.8574 105.726 13.6281 104.989 13.3373C104.254 13.063 103.534 12.767 102.822 12.4584C101.393 11.8391 100.01 11.1872 98.6222 10.4767V10.4767Z" fill="#020202"/>
<path d="M103.565 23.9058C103.908 24.7495 104.062 25.636 104.018 26.5234C104.011 27.4525 103.718 28.3657 103.166 29.1806C102.86 29.502 102.59 29.844 102.357 30.2029C102.176 30.5557 102.067 30.9304 102.037 31.3117C101.994 32.1498 102.11 32.9883 102.38 33.7982C101.678 33.087 101.251 32.224 101.154 31.3177C101.099 30.8365 101.168 30.3514 101.356 29.8927C101.572 29.4709 101.854 29.0732 102.196 28.7095C102.665 28.0031 102.985 27.2384 103.143 26.4469C103.334 25.6273 103.449 24.7802 103.565 23.9058Z" fill="#020202"/>
<path d="M81.7262 54.7236C81.531 54.4675 81.365 54.1966 81.2304 53.9145C81.0904 53.6291 80.9921 53.3306 80.9377 53.0254C80.8621 52.6857 80.9354 52.3345 81.1442 52.0366C81.399 51.7397 81.783 51.5388 82.2131 51.4776L82.138 51.495C82.3043 51.4274 82.4429 51.3199 82.5362 51.1861C82.5645 51.1385 82.5755 51.0848 82.5676 51.0319C82.5624 51.0032 82.553 50.9752 82.5397 50.9484L82.4732 50.8108C82.3517 50.5559 82.3073 50.2799 82.3437 50.0071C82.3802 49.7344 82.4964 49.4734 82.6821 49.2474C82.8733 49.0231 83.1256 48.8404 83.418 48.7144C83.6712 48.614 83.9351 48.5339 84.2062 48.4751C84.3455 48.4467 84.4679 48.377 84.5508 48.279C84.5658 48.2481 84.5698 48.2142 84.5625 48.1813C84.5527 48.1327 84.5332 48.0859 84.5047 48.0427C84.4754 48.0087 84.4549 47.9701 84.4443 47.9291L84.4419 47.9193C84.3295 47.4935 84.3354 47.0518 84.459 46.6282C84.531 46.3996 84.6551 46.1848 84.8245 45.9957C85.0052 45.8048 85.2363 45.6517 85.4996 45.5485C85.7251 45.4641 85.9619 45.4026 86.2049 45.3654C86.3795 45.3346 86.5472 45.2808 86.7018 45.2061C86.8274 45.1502 86.9284 45.062 86.9899 44.9544C87.04 44.8498 87.0479 44.7343 87.0126 44.6256L86.9887 44.5522C86.982 44.5311 86.9804 44.509 86.9842 44.4873C87.0542 44.1082 87.1951 43.7407 87.4017 43.3984C87.6033 43.0528 87.8935 42.7488 88.2516 42.5081C88.6089 42.2661 89.0407 42.1138 89.4971 42.069C89.7177 42.0442 89.9405 42.0363 90.1628 42.0453C90.3824 42.0565 90.5971 42.0944 90.8138 42.1183C90.8514 42.1225 90.8858 42.1385 90.91 42.163C90.9342 42.1875 90.9464 42.2188 90.9442 42.2506L90.9432 42.2641C90.9044 42.9621 90.9818 43.6612 91.1732 44.3413C91.3538 45.0242 91.6314 45.6866 92.0001 46.3141C92.3568 46.9404 92.7963 47.5311 93.3105 48.0751C93.817 48.6173 94.3776 49.1225 94.9861 49.5852C95.0398 49.6275 95.0802 49.6803 95.1036 49.7389C95.2332 50.0579 95.3144 50.3893 95.3452 50.7253C95.388 51.0996 95.3101 51.4767 95.1196 51.8172C95.0538 51.9097 94.9817 51.9989 94.9036 52.0844C94.8095 52.1609 94.7109 52.237 94.6085 52.3056C94.4974 52.3574 94.3825 52.4067 94.2665 52.4522C94.1536 52.4853 94.0378 52.5111 93.9202 52.5294C93.7012 52.5622 93.4785 52.5745 93.2562 52.5662C93.0517 52.5479 92.8508 52.5222 92.6478 52.4982L93.276 51.9909C93.3475 52.3347 93.3795 52.6834 93.3716 53.0322C93.3694 53.4021 93.2918 53.7689 93.1422 54.1169C92.9654 54.5341 92.599 54.8757 92.1229 55.0672C91.6592 55.2195 91.1515 55.2509 90.6661 55.1574L91.3436 54.7034C91.3232 55.0481 91.2368 55.3878 91.0876 55.7095C90.9337 56.0609 90.6691 56.3706 90.3218 56.6058C89.9528 56.8462 89.494 56.9692 89.027 56.9529C88.8173 56.948 88.6086 56.9265 88.4037 56.8887C88.2121 56.844 88.0273 56.7905 87.8406 56.7402L88.4938 56.4026C88.4218 56.7697 88.2843 57.1256 88.0858 57.4583C87.8824 57.8234 87.5543 58.1297 87.1431 58.3382C86.9259 58.4383 86.6868 58.5005 86.4402 58.5212C86.1936 58.5418 85.9445 58.5204 85.7081 58.4582C85.4957 58.4031 85.2889 58.3339 85.0897 58.2513L84.5536 57.9693C84.4911 57.9363 84.4444 57.886 84.4217 57.8272C84.2982 57.5348 84.1401 57.2534 83.9497 56.9874C83.7582 56.7102 83.536 56.4465 83.3095 56.1831C83.0766 55.9216 82.8276 55.6705 82.5637 55.4307C82.3019 55.1927 82.0157 54.9555 81.7262 54.7236ZM81.8068 54.6671C82.136 54.8504 82.4526 55.0492 82.755 55.2626C83.0627 55.4791 83.3569 55.7089 83.6363 55.951C83.9171 56.1966 84.1764 56.4589 84.4122 56.7358C84.6615 57.02 84.8745 57.3253 85.0476 57.6468L84.9158 57.5048L85.3995 57.7095C85.5578 57.7589 85.7202 57.7988 85.8853 57.8288C86.0246 57.86 86.1701 57.8671 86.3128 57.8497C86.4556 57.8323 86.5926 57.7907 86.7155 57.7274C86.9632 57.5768 87.1533 57.369 87.2626 57.1294C87.3957 56.867 87.4829 56.5898 87.5215 56.3064C87.5289 56.249 87.551 56.1936 87.5861 56.1438C87.6211 56.0941 87.6685 56.0513 87.7249 56.0182C87.7814 55.985 87.8456 55.9624 87.9133 55.9518C87.981 55.9412 88.0507 55.9428 88.1176 55.9565L88.1748 55.9687L88.6106 56.0609C88.7458 56.078 88.8825 56.0851 89.0192 56.0822C89.2515 56.0874 89.4783 56.0225 89.6584 55.8994C89.8448 55.7601 89.9834 55.5815 90.0597 55.3822C90.1533 55.1585 90.2067 54.9243 90.2181 54.6874C90.2202 54.625 90.237 54.5635 90.2674 54.5065C90.2979 54.4496 90.3415 54.3982 90.3956 54.3553C90.4498 54.3124 90.5135 54.2789 90.5831 54.2567C90.6527 54.2345 90.7269 54.2239 90.8013 54.2257L90.8526 54.2289L90.8957 54.2333C91.1503 54.2854 91.4172 54.2768 91.6663 54.2084C91.7697 54.1637 91.8615 54.1023 91.9364 54.0276C92.0113 53.953 92.0679 53.8667 92.1029 53.7737C92.2126 53.5253 92.2746 53.2639 92.2868 52.9992C92.3035 52.7143 92.2889 52.4287 92.2432 52.146C92.2318 52.0758 92.2402 52.0044 92.2677 51.9375C92.2952 51.8705 92.3411 51.8099 92.4015 51.7605C92.462 51.7111 92.5355 51.6742 92.616 51.6529C92.6965 51.6316 92.7819 51.6263 92.8653 51.6377L92.8715 51.6387L93.3291 51.7031C93.4654 51.7107 93.6023 51.7071 93.7378 51.6924C93.8438 51.69 93.9473 51.6644 94.038 51.6183C94.1288 51.5722 94.2036 51.507 94.2552 51.4293C94.4491 50.9581 94.4519 50.4464 94.2632 49.9738L94.3805 50.1273C93.7593 49.6098 93.2036 49.0397 92.7222 48.4263C92.2441 47.8165 91.8437 47.1662 91.5276 46.4863C91.2125 45.812 90.977 45.1135 90.8243 44.4007C90.6601 43.6892 90.5911 42.9645 90.6185 42.2402L90.7478 42.3859C90.3554 42.318 89.9514 42.3119 89.5564 42.3678C89.1732 42.4189 88.8173 42.5658 88.5353 42.7891C88.258 43.0143 88.0434 43.2881 87.9069 43.5908C87.7656 43.8923 87.6796 44.2101 87.6518 44.5332L87.6235 44.3952C87.751 44.6338 87.7707 44.9032 87.6787 45.153C87.5834 45.3941 87.398 45.6029 87.1499 45.7486C86.7555 45.943 86.3356 46.0985 85.8987 46.2121C85.7619 46.2759 85.6432 46.3638 85.5508 46.4698C85.4584 46.5757 85.3945 46.6972 85.3635 46.8259C85.2873 47.1263 85.2852 47.4365 85.3572 47.7376L85.2945 47.6144C85.3993 47.759 85.4653 47.9211 85.4877 48.0893C85.5136 48.2735 85.4747 48.4601 85.3757 48.626C85.1841 48.9033 84.8705 49.1066 84.5022 49.1923C84.2689 49.238 84.0404 49.2993 83.8188 49.3756C83.6418 49.4408 83.4861 49.5408 83.365 49.6672C83.2496 49.7987 83.1736 49.9514 83.1434 50.1127C83.1131 50.2739 83.1295 50.4389 83.1912 50.5938L83.2554 50.7639C83.2822 50.8407 83.2975 50.92 83.301 50.9999C83.3059 51.1658 83.2548 51.3296 83.1536 51.4722C82.9714 51.712 82.7016 51.8959 82.3845 51.9966C82.3627 52.0046 82.3396 52.0102 82.3161 52.0133L82.3092 52.0141C82.0353 52.0278 81.7779 52.1287 81.5897 52.2962C81.4187 52.503 81.3355 52.752 81.3532 53.0032C81.3593 53.2867 81.4059 53.5685 81.4921 53.8427C81.5781 54.1223 81.6832 54.3976 81.8068 54.6671Z" fill="#020202"/>
<path d="M85.7246 48.6369C86.073 49.1643 86.3727 49.7074 86.6217 50.2627C86.7519 50.5393 86.858 50.821 86.9597 51.1067C87.0126 51.2428 87.041 51.4163 87.0969 51.5076C87.1602 51.6278 87.2447 51.7419 87.3484 51.8469C87.8027 52.3091 88.3101 52.7437 88.8653 53.1462L90.5406 54.4074C89.8407 54.1024 89.1785 53.7556 88.5612 53.3707C87.92 52.9895 87.3529 52.5491 86.875 52.0613C86.7499 51.9271 86.6496 51.7821 86.5765 51.6297C86.5177 51.4838 86.4726 51.3354 86.4413 51.1853C86.3725 50.9051 86.2792 50.6256 86.2001 50.343C86.0264 49.7803 85.8653 49.2119 85.7246 48.6369Z" fill="#020202"/>
<path d="M83.7983 50.2857C84.0774 50.8228 84.2965 51.3878 84.4521 51.971C84.4931 52.1164 84.5312 52.2628 84.5624 52.4107C84.597 52.5333 84.6483 52.6507 84.715 52.7597C84.8578 53.0031 85.0246 53.2323 85.2129 53.4438C85.5847 53.891 86.0012 54.3147 86.412 54.746C86.8264 55.175 87.2458 55.603 87.6511 56.0561C87.1202 55.7555 86.6177 55.4092 86.1494 55.0211C85.672 54.6374 85.2312 54.2119 84.8324 53.7498C84.6267 53.5089 84.4486 53.2466 84.3013 52.9676C84.2245 52.8145 84.1698 52.6516 84.1387 52.4837L84.0774 52.0474L83.7983 50.2857Z" fill="#020202"/>
<path d="M88.6143 46.1637C89.0887 47.0174 89.4974 47.8826 89.9491 48.7231C90.1679 49.1468 90.4016 49.5603 90.6504 49.9636C90.8945 50.3745 91.1806 50.7587 91.5039 51.1099C91.0719 50.8706 90.6956 50.5413 90.4 50.144C90.0948 49.7596 89.8273 49.3463 89.6013 48.91C89.3738 48.4782 89.1758 48.0313 89.0088 47.5724C88.8363 47.1154 88.7043 46.644 88.6143 46.1637Z" fill="#020202"/>
<path d="M135.81 59.2894C135.449 60.8143 135.032 62.3282 134.6 63.8392C134.166 65.3499 133.719 66.8584 133.232 68.3578C132.749 69.858 132.249 71.3545 131.734 72.8474C131.462 73.5954 131.236 74.3333 130.923 75.0891C130.623 75.8465 130.224 76.573 129.731 77.255C128.755 78.6429 127.389 79.8065 125.754 80.6429C124.12 81.4614 122.311 82.0019 120.431 82.2339C118.572 82.474 116.682 82.5 114.814 82.3113C114.349 82.2677 113.884 82.213 113.422 82.1441C112.95 82.0623 112.484 81.9605 112.024 81.839L110.711 81.4217L109.43 80.9621C102.697 78.3738 96.2987 75.299 89.8517 72.2943C88.2443 71.5364 86.6534 70.7544 85.0648 69.9658C84.6696 69.7649 84.2695 69.5741 83.8804 69.3603C83.503 69.1472 83.113 68.9504 82.712 68.7707C81.8899 68.452 81.0162 68.2384 80.1196 68.137C78.2983 67.9669 76.4634 67.9253 74.6339 68.0126C74.4014 68.013 74.1681 68.0117 73.9298 67.9984C73.6745 67.9935 73.4216 67.9543 73.1809 67.8823C73.1024 67.8563 73.0301 67.8185 72.9677 67.7706L72.8361 67.6673L72.5857 67.4679L72.085 67.0692L70.083 65.4747L70.066 65.4599C69.9145 65.3157 69.7777 65.1609 69.6572 64.9972C69.5348 64.8279 69.4373 64.6465 69.367 64.4572C69.2972 64.2616 69.2638 64.058 69.2681 63.8537C69.2703 63.6359 69.3277 63.4211 69.4367 63.2236L69.4811 63.5167C69.2614 63.31 69.0859 63.0726 68.9626 62.8151C68.8425 62.5745 68.7471 62.3257 68.6776 62.0712C68.5383 61.5731 68.454 61.0652 68.4259 60.5539L68.4828 60.7065C68.2014 60.3352 68.0292 59.9126 67.9804 59.4739C67.9539 59.264 67.9454 59.0527 67.9551 58.8418C67.9636 58.6283 67.992 58.4158 68.0401 58.2061L68.3935 58.5889C67.6321 58.5637 66.8842 58.411 66.1933 58.1397C65.8538 58.01 65.5251 57.8608 65.2097 57.6932C64.8899 57.5246 64.5853 57.3363 64.2983 57.1298C64.2847 57.1199 64.2721 57.109 64.2608 57.0971L64.2556 57.0915C63.9663 56.8109 63.7507 56.4817 63.6233 56.1255C63.5532 55.9097 63.5533 55.6819 63.6235 55.4661C63.703 55.2429 63.86 55.045 64.0744 54.898C64.277 54.7647 64.5141 54.6736 64.7663 54.6322C65.0186 54.5908 65.2788 54.6003 65.5259 54.6598L66.6321 54.8877L71.0533 55.8105L70.498 56.3097C70.3032 55.795 70.2202 55.2548 70.2529 54.7151C70.2776 54.4376 70.3389 54.1632 70.4356 53.8971C70.5347 53.591 70.7298 53.3133 71.0005 53.0932C71.3168 52.8583 71.7306 52.739 72.151 52.7616C72.4992 52.784 72.84 52.8582 73.1575 52.9808C73.7184 53.2015 74.2486 53.4739 74.7384 53.7931C75.2182 54.0946 75.6727 54.4167 76.1149 54.7235L76.4402 54.9415C76.5332 54.9976 76.6314 55.0474 76.7337 55.0904C76.9636 55.183 77.2044 55.2552 77.452 55.3058C78.538 55.507 79.6496 55.5923 80.7607 55.5597L80.7829 55.5594C80.8143 55.5593 80.8455 55.562 80.8762 55.5674C82.053 55.808 83.1575 56.253 84.1193 56.874C85.0514 57.4609 85.921 58.1155 86.7182 58.8303C87.51 59.5354 88.2538 60.2779 88.946 61.0542C89.2332 61.3868 89.6133 61.6544 90.0525 61.8332L91.5839 62.4228C93.642 63.2028 95.7134 63.954 97.7982 64.6763C99.845 65.4254 101.967 66.0188 104.139 66.4495L104.166 66.454L104.188 66.4585C107.633 67.2936 111.074 68.1401 114.512 68.9981L114.134 69.1912L115.794 63.0047L117.488 56.8245C117.491 56.8138 117.499 56.8045 117.51 56.7987C117.521 56.7928 117.534 56.7907 117.547 56.793C117.56 56.7953 117.571 56.8016 117.578 56.8107C117.585 56.8199 117.588 56.831 117.585 56.8417L116.173 63.0723L114.726 69.2967C114.711 69.3623 114.666 69.42 114.6 69.4573C114.534 69.4946 114.454 69.5083 114.376 69.4954L114.358 69.4919L114.349 69.4898C110.883 68.7178 107.421 67.9329 103.963 67.1351L104.012 67.144C102.875 66.9672 101.755 66.7176 100.663 66.3974C99.5805 66.0919 98.513 65.7598 97.452 65.4163C95.3307 64.7281 93.2439 63.9766 91.1735 63.1955L89.6156 62.601C89.0303 62.3644 88.5224 62.0106 88.136 61.5705C87.4645 60.8229 86.7433 60.108 85.976 59.4293C85.2192 58.7552 84.3944 58.1379 83.5108 57.5845C82.6695 57.0426 81.7052 56.6524 80.6778 56.4382L80.793 56.446C79.5814 56.4765 78.3702 56.3736 77.1901 56.1401C76.8742 56.0722 76.5677 55.9765 76.2756 55.8546C76.1191 55.7869 75.9695 55.7086 75.8282 55.6204C75.7018 55.5387 75.5887 55.4589 75.4743 55.379C75.0236 55.0603 74.5919 54.7491 74.1436 54.4621C73.7174 54.1783 73.2559 53.9345 72.7672 53.7351C72.5574 53.6506 72.3319 53.5971 72.1007 53.5769C72.019 53.5696 71.9365 53.5763 71.8579 53.5964C71.7794 53.6166 71.7064 53.6499 71.6434 53.6943C71.3606 54.0009 71.2031 54.3766 71.1946 54.7651C71.1644 55.2062 71.2277 55.6483 71.3815 56.0706L71.3834 56.0758C71.4079 56.1422 71.4109 56.2129 71.3921 56.2806C71.3733 56.3483 71.3335 56.4106 71.2767 56.4609C71.2199 56.5113 71.1482 56.5479 71.069 56.5671C70.9898 56.5862 70.9059 56.5872 70.8262 56.5698L66.4159 55.6106L65.3141 55.368C65.1968 55.3337 65.0714 55.3236 64.9485 55.3386C64.8256 55.3535 64.7087 55.393 64.6075 55.4538C64.5189 55.5114 64.4539 55.5911 64.4217 55.6815C64.3896 55.7719 64.3919 55.8686 64.4283 55.9579C64.5227 56.2166 64.6789 56.4562 64.8873 56.6621L64.8447 56.6239C65.0947 56.8079 65.3599 56.9767 65.6383 57.1289C65.9197 57.2837 66.2133 57.4221 66.5171 57.5432C67.1099 57.7867 67.7539 57.9289 68.412 57.9615L68.4148 57.9616C68.5144 57.9655 68.6081 58.0025 68.6753 58.0647C68.7426 58.1268 68.7778 58.209 68.7732 58.2931C68.7722 58.3103 68.7696 58.3275 68.7655 58.3444C68.7236 58.5187 68.6962 58.6953 68.6833 58.8728C68.6698 59.0528 68.6717 59.2333 68.689 59.413C68.7157 59.7575 68.8386 60.0919 69.0476 60.3887L69.0512 60.3935C69.0841 60.438 69.1026 60.489 69.1045 60.5415C69.1178 61.0152 69.1826 61.4869 69.298 61.9507C69.384 62.3936 69.595 62.8126 69.9132 63.1722L69.9153 63.1742C69.9557 63.2137 69.9813 63.2625 69.9889 63.3143C69.9964 63.3662 69.9855 63.4188 69.9576 63.4654C69.8903 63.5935 69.8527 63.7313 69.8469 63.8714C69.8397 64.0243 69.8606 64.1772 69.9086 64.3248C69.961 64.4773 70.0351 64.6239 70.1293 64.7614C70.2281 64.9028 70.3412 65.0368 70.4672 65.1619L70.4505 65.1473L72.4234 66.7859L72.9164 67.1954L73.1629 67.4001C73.202 67.4318 73.2495 67.4739 73.2817 67.497C73.3053 67.5138 73.3321 67.5272 73.361 67.5363C73.7767 67.6307 74.2068 67.672 74.637 67.6591C76.485 67.6076 78.3351 67.671 80.1722 67.8487C81.1015 67.9603 82.0058 68.1883 82.8554 68.5251C83.2655 68.7119 83.664 68.9162 84.0495 69.1373C84.4297 69.3498 84.8292 69.5439 85.2202 69.7462C86.7985 70.5398 88.4082 71.2918 90.0195 72.0396C93.2389 73.5412 96.496 74.9831 99.7908 76.3653C103.08 77.749 106.386 79.121 109.754 80.3253L111.018 80.7689L112.291 81.1638L112.921 81.3088C113.132 81.3638 113.348 81.4055 113.566 81.4334C114.01 81.4964 114.458 81.5462 114.907 81.5852C116.701 81.7453 118.512 81.7201 120.299 81.5103C122.073 81.3074 123.784 80.8132 125.334 80.0555C126.87 79.2873 128.158 78.211 129.084 76.922C130.055 75.6507 130.536 74.1686 131.11 72.6868C131.667 71.2082 132.208 69.7254 132.734 68.2384C133.782 65.2636 134.798 62.279 135.713 59.2713C135.715 59.266 135.717 59.261 135.721 59.2565C135.725 59.2521 135.73 59.2484 135.736 59.2455C135.741 59.2427 135.747 59.2408 135.754 59.24C135.76 59.2391 135.767 59.2394 135.773 59.2407C135.785 59.2433 135.796 59.2499 135.803 59.2589C135.81 59.2679 135.812 59.2788 135.81 59.2894Z" fill="#020202"/>
<path d="M116.547 70.0708L113.841 69.1552C113.781 69.1349 113.728 69.0772 113.695 68.9948C113.661 68.9124 113.65 68.812 113.662 68.7158C113.675 68.6196 113.711 68.5354 113.762 68.4817C113.814 68.428 113.876 68.4093 113.936 68.4296C113.949 68.434 113.961 68.4399 113.973 68.4474L116.547 70.0708Z" fill="#020202"/>
<path d="M70.3135 56.0565C71.2986 56.0775 72.2791 56.1633 73.2426 56.3128C73.7207 56.3862 74.1976 56.4611 74.67 56.5516C75.1463 56.6339 75.6064 56.7499 76.0927 56.8197C75.6003 56.8896 75.0952 56.9003 74.5979 56.8514C74.1069 56.8178 73.6186 56.7654 73.1353 56.6947C72.1637 56.5607 71.2169 56.3466 70.3135 56.0565Z" fill="#020202"/>
<path d="M68.3872 58.5297C68.9736 58.5722 69.5436 58.7317 70.0596 58.9975C70.3223 59.1273 70.5664 59.2881 70.786 59.476C71.0209 59.6585 71.1919 59.9035 71.2768 60.179C71.0668 60.0027 70.8363 59.8494 70.5898 59.7218C70.3506 59.5932 70.111 59.4641 69.8622 59.3447C69.3537 59.101 68.8612 58.8288 68.3872 58.5297Z" fill="#020202"/>
<path d="M68.3872 60.1785C68.7814 60.3265 69.1484 60.549 69.4715 60.8358C69.8042 61.1093 70.0894 61.4452 70.3136 61.8276C69.9191 61.6804 69.5519 61.4578 69.2293 61.1703C68.8971 60.8962 68.6121 60.5604 68.3872 60.1785Z" fill="#020202"/>
<path d="M69.3501 62.6508C69.7498 62.8319 70.1235 63.1493 70.4486 63.5837C70.7839 63.9954 71.0658 64.5199 71.2765 65.1247C70.8765 64.9451 70.5025 64.6276 70.1779 64.1918C69.8433 63.7789 69.5616 63.2546 69.3501 62.6508Z" fill="#020202"/>
<path d="M73.9447 65.9481C73.6342 65.8861 73.3695 65.7916 73.1776 65.6741C72.9858 65.5566 72.8736 65.4204 72.8525 65.2793C72.7811 64.9988 72.8635 64.7153 73.0937 64.4494L73.0809 64.4654C73.1515 64.3291 73.1886 64.1903 73.1916 64.0511C73.2228 63.9485 73.176 63.8444 73.0576 63.753C72.777 63.6153 72.5689 63.4553 72.4463 63.2832C72.3107 63.1202 72.2411 62.9493 72.2403 62.7771C72.2315 62.5977 72.3233 62.4199 72.5088 62.2573C72.7106 62.1338 72.8953 62.0056 73.0619 61.8736C73.2931 61.5934 73.3717 61.2959 73.2922 61.002C73.66 61.2912 73.7898 61.6213 73.6624 61.9431C73.5617 62.0955 73.4241 62.2433 73.2515 62.3844C73.1612 62.5069 73.13 62.6353 73.1595 62.7627C73.2105 63.0248 73.4356 63.2763 73.8106 63.4899C74.0945 63.6591 74.2148 63.8654 74.1482 64.0688C74.1098 64.2352 74.0295 64.3996 73.9086 64.5593L73.9032 64.5668L73.8956 64.5755C73.7808 64.6888 73.6608 64.8011 73.5747 64.9177C73.4902 65.0326 73.4338 65.1508 73.4064 65.2703C73.3665 65.3925 73.3942 65.5169 73.4873 65.6342C73.5805 65.7515 73.7368 65.8588 73.9447 65.9481Z" fill="#020202"/>
<path d="M68.7646 55.2316C67.9775 54.6894 67.2156 54.1274 66.4584 53.5619C65.706 52.9925 64.9526 52.424 64.2192 51.8399C62.7383 50.6826 61.2949 49.4961 59.8687 48.2961C59.8199 48.2551 59.7815 48.2066 59.7557 48.1534C59.7299 48.1003 59.7172 48.0435 59.7183 47.9864C59.7195 47.9293 59.7344 47.8729 59.7623 47.8204C59.7901 47.768 59.8304 47.7205 59.8808 47.6808L59.9075 47.661L59.9164 47.6549C60.6062 47.1822 61.3081 46.7217 62.011 46.2621L62.0164 46.2585C62.1219 46.1899 62.2555 46.1565 62.3902 46.165C62.5249 46.1735 62.6505 46.2234 62.7418 46.3045C64.0643 47.4866 65.3529 48.694 66.622 49.9159C67.2578 50.526 67.8836 51.1435 68.4995 51.7685C69.1164 52.3927 69.7258 53.0225 70.3134 53.6686C69.5737 53.1363 68.8557 52.5877 68.145 52.0336C67.4357 51.4786 66.7341 50.9178 66.0403 50.3511C64.6546 49.2163 63.2882 48.0671 61.9559 46.8924L62.6866 46.9349C61.9945 47.4053 61.3015 47.8747 60.5963 48.332L60.644 47.691C62.0539 48.9037 63.4466 50.1298 64.8018 51.3852C65.4864 52.0075 66.151 52.6453 66.8167 53.2822C67.4775 53.9231 68.1337 54.5675 68.7646 55.2316Z" fill="#020202"/>
<path d="M65.4972 44.5154C64.9822 43.7345 64.567 42.9242 64.2563 42.0937C63.9206 41.2677 63.6912 40.423 63.5708 39.5694C64.0869 40.35 64.5022 41.1604 64.8117 41.9911C65.1462 42.8173 65.3756 43.6619 65.4972 44.5154Z" fill="#020202"/>
<path d="M70.3135 46.1652C70.5493 45.6594 70.8354 45.1952 71.1645 44.7843C71.484 44.3609 71.8456 43.9935 72.2399 43.6914C72.0046 44.1977 71.7185 44.662 71.3888 45.0723C71.0688 45.495 70.7074 45.8624 70.3135 46.1652Z" fill="#020202"/>
<path d="M39.4469 83.1086C39.5081 82.8352 39.6008 82.5662 39.7239 82.3047C39.7903 82.1708 39.875 82.0424 39.9768 81.9216C40.0839 81.7784 40.2589 81.6704 40.4673 81.6188C40.5847 81.6034 40.7055 81.6111 40.8177 81.6413C40.9298 81.6715 41.0295 81.7231 41.1068 81.7909C41.248 81.8979 41.3706 82.0177 41.4719 82.1475C41.6628 82.394 41.8271 82.6514 41.9632 82.9173C42.4775 83.9662 42.8483 85.0514 43.07 86.1563C43.4188 88.364 43.4342 90.594 43.116 92.8044C42.9608 93.9062 42.7583 95.0053 42.4551 96.0964C42.2971 96.6412 42.1198 97.1841 41.8924 97.7233C41.6847 98.2926 41.3521 98.8321 40.9081 99.3201C40.7559 99.4722 40.5594 99.5964 40.3334 99.6832C40.1807 99.7354 40.0122 99.7561 39.8452 99.7432C39.6876 99.7273 39.5374 99.6836 39.407 99.6156C39.0675 99.4035 38.8121 99.1261 38.6684 98.8133C38.4019 98.2843 38.2009 97.7382 38.0677 97.1817C37.8141 96.0945 37.646 94.997 37.5645 93.895C37.8937 94.9673 38.1778 96.0448 38.6037 97.0853C38.7898 97.6001 39.0358 98.1016 39.3387 98.5844C39.4553 98.787 39.6323 98.9669 39.8563 99.1104C39.942 99.1372 39.9177 99.1299 39.9714 99.1129C40.0628 99.0622 40.1415 98.9999 40.2039 98.9287C40.5385 98.4854 40.7888 98.0095 40.9476 97.5146C41.137 97.0019 41.2832 96.4736 41.4105 95.9426C41.6732 94.8808 41.8637 93.8032 41.9976 92.7222C42.1499 91.6423 42.2392 90.5569 42.2817 89.4726C42.3352 88.3915 42.3084 87.3091 42.2015 86.2302C42.1513 85.6919 42.0287 85.1708 41.9063 84.6305C41.7813 84.0957 41.6344 83.5642 41.4434 83.047C41.3554 82.7904 41.2405 82.5394 41.0997 82.2964C40.9647 82.0739 40.7485 81.8122 40.5241 81.8362C40.2709 81.8653 40.0395 82.1323 39.8777 82.3567C39.7055 82.5976 39.5613 82.8492 39.4469 83.1086Z" fill="#020202"/>
<path d="M133.018 67.2287L135.835 69.1309L137.291 70.0366C137.779 70.3344 138.247 70.6562 138.756 70.9239C139.762 71.4764 140.736 72.0689 141.781 72.5577C142.3 72.8052 142.798 73.0873 143.327 73.3171L144.908 74.014C147.034 74.9087 149.231 75.6643 151.48 76.2748C153.729 76.9056 156.077 77.2099 158.435 77.1762L158.292 77.3174C158.305 76.095 158.298 74.8724 158.279 73.6499C158.267 72.4274 158.218 71.2049 158.187 69.9824L158.07 66.3148L157.994 62.6473L158.746 62.9602C157.868 63.5498 156.914 64.0445 155.905 64.434L155.16 64.7226L154.399 64.9709C153.895 65.1503 153.37 65.2618 152.853 65.4026C150.767 65.8886 148.618 66.1285 146.462 66.1161L144.853 66.0836C144.318 66.0575 143.787 65.9894 143.254 65.9442C142.185 65.8742 141.142 65.6539 140.091 65.4981C139.045 65.3126 138.02 65.0468 136.992 64.8076L133.977 63.8921L134.285 63.747C133.88 64.8819 133.459 66.0327 133.018 67.2287ZM132.921 67.254C133.204 66.0833 133.507 64.8674 133.825 63.6356L133.878 63.429L134.133 63.4905L137.169 64.2226L138.707 64.501C139.22 64.5872 139.723 64.7194 140.243 64.7677C141.278 64.8831 142.303 65.0636 143.344 65.0941C143.863 65.1223 144.381 65.1623 144.899 65.1812L146.454 65.1874C148.52 65.1606 150.576 64.9281 152.585 64.4942C153.079 64.3693 153.585 64.2738 154.066 64.1121L154.796 63.8906L155.508 63.631C156.445 63.2907 157.334 62.8556 158.158 62.3344L158.927 61.8273L158.91 62.6473L158.833 66.3148L158.717 69.9824C158.686 71.2049 158.637 72.4274 158.624 73.6499C158.606 74.8724 158.599 76.0949 158.612 77.3174L158.613 77.4496L158.469 77.4588C157.267 77.5197 156.062 77.4918 154.866 77.3752L153.97 77.2895L153.081 77.1657C152.484 77.0957 151.901 76.9663 151.312 76.8594C148.963 76.3865 146.684 75.6737 144.52 74.7352L142.917 74.0011C142.381 73.7601 141.879 73.4655 141.362 73.1945C140.319 72.6653 139.347 72.0381 138.367 71.4262C137.868 71.1309 137.409 70.7881 136.943 70.4544L135.551 69.4493C134.642 68.7207 133.753 67.9646 132.921 67.254Z" fill="#020202"/>
<path d="M149.338 31.3324C150.36 31.9283 151.315 32.6033 152.191 33.3489C153.075 34.0875 153.912 34.8661 154.698 35.6813C156.26 37.321 157.665 39.0657 158.898 40.8982C161.35 44.5708 163.264 48.4867 164.595 52.5579C165.887 56.6212 166.813 60.7627 167.366 64.9462C167.977 69.1147 168.345 73.3022 168.471 77.509C168.615 81.7127 168.508 85.92 168.149 90.1144C168.116 90.6487 168.06 91.1444 168.085 91.6462C168.1 92.148 168.161 92.6479 168.269 93.1413C168.496 94.1254 168.908 95.0717 169.489 95.9434C170.078 96.8067 170.831 97.5804 171.717 98.2328C171.941 98.3919 172.173 98.5431 172.408 98.6904L172.772 98.8964L172.955 99.0001C173.009 99.0275 173.061 99.0578 173.11 99.0907C173.172 99.1536 173.102 99.0459 173.267 99.2536C173.695 99.4395 172.709 100.125 172.817 99.9201C172.77 99.9226 172.724 99.9208 172.679 99.9146L172.618 99.9058L170.814 99.4785C168.476 98.9414 166.072 98.6389 163.652 98.5774C161.234 98.5074 158.817 98.7582 156.49 99.3209C155.329 99.6012 154.219 100.004 153.038 100.367C152.461 100.562 151.852 100.687 151.261 100.85C150.661 100.99 150.052 101.109 149.441 101.21C148.211 101.42 146.948 101.452 145.705 101.305C145.394 101.263 145.087 101.203 144.786 101.126C144.487 101.042 144.196 100.937 143.918 100.81C143.35 100.569 142.877 100.19 142.559 99.7213C142.553 99.7116 142.552 99.7004 142.555 99.6899C142.559 99.6795 142.567 99.6706 142.578 99.6652C142.589 99.6598 142.602 99.6582 142.615 99.6609C142.627 99.6636 142.638 99.6702 142.644 99.6795L142.649 99.6854C142.988 100.11 143.463 100.442 144.017 100.643C144.289 100.751 144.572 100.839 144.861 100.905C145.153 100.965 145.45 101.009 145.749 101.035C146.954 101.115 148.167 101.033 149.343 100.791C149.932 100.672 150.519 100.536 151.097 100.381C151.668 100.201 152.252 100.06 152.81 99.8489C153.926 99.4646 155.062 98.9992 156.264 98.6883C158.661 98.0548 161.158 97.7426 163.666 97.7628C166.169 97.7836 168.659 98.0667 171.08 98.6059C171.383 98.6708 171.684 98.7411 171.982 98.8146C172.269 98.8833 172.606 98.9732 172.83 99.0201L172.827 99.0195C172.8 99.0174 172.773 99.0169 172.746 99.0182C172.871 98.8175 171.912 99.4891 172.321 99.6602C172.477 99.8535 172.388 99.7377 172.437 99.7889C172.458 99.803 172.423 99.7812 172.401 99.77L172.199 99.6562L171.796 99.4271C171.536 99.2639 171.279 99.0958 171.032 98.919C170.05 98.2005 169.224 97.3405 168.591 96.3782C167.969 95.4162 167.534 94.3745 167.303 93.2936C167.194 92.7545 167.135 92.2088 167.127 91.6617C167.109 91.1148 167.18 90.5637 167.219 90.052C167.639 85.883 167.876 81.7039 167.928 77.5146C167.986 73.3244 167.692 69.1359 167.047 64.9817C166.866 63.9459 166.663 62.9131 166.467 61.8802C166.217 60.8552 165.988 59.8272 165.72 58.8069C165.159 56.771 164.556 54.7443 163.804 52.758C163.099 50.7598 162.262 48.7998 161.361 46.8636C160.461 44.9263 159.417 43.04 158.235 41.2162C157.069 39.3846 155.751 37.6267 154.29 35.956C152.843 34.2716 151.161 32.7428 149.283 31.4028L149.28 31.4006C149.27 31.3939 149.264 31.3841 149.262 31.3733C149.26 31.3626 149.263 31.3516 149.271 31.3428C149.278 31.334 149.289 31.328 149.302 31.3261C149.315 31.3241 149.327 31.3264 149.338 31.3324L149.338 31.3324Z" fill="#020202"/>
<path d="M41.8159 83.0502C40.2016 83.1268 38.5833 83.1027 36.9728 82.978C35.3577 82.8646 33.7521 82.6613 32.1654 82.3694C30.5715 82.0845 29.0036 81.6944 27.4746 81.2024C25.9437 80.6971 24.4671 80.0698 23.0628 79.3281C22.7165 79.1355 22.3477 78.9696 22.0197 78.7545L21.0288 78.1167C20.3684 77.6843 19.705 77.2906 19.0433 76.8757L15.0784 74.408L7.17943 69.4379L7.25101 69.4752C7.05458 69.3983 6.85045 69.338 6.64132 69.2951C6.47145 69.2548 6.29395 69.2467 6.12035 69.2715C6.01016 69.3097 6.02491 69.2926 5.98931 69.4044C5.96275 69.4413 5.98805 69.5426 5.97835 69.6097L6.02818 69.8746L6.02879 69.8779C6.05042 69.9928 6.02506 70.1108 5.95734 70.2105C5.91088 70.2888 5.87533 70.372 5.85149 70.458C5.82313 70.559 5.80787 70.6626 5.80601 70.7668C5.80695 70.9858 5.85501 71.2027 5.94759 71.4056L5.78351 71.9109C5.84421 71.8669 5.81424 71.8876 5.8235 71.8805L5.81658 71.8927C5.80728 71.911 5.80057 71.9302 5.7966 71.9499C5.78343 72.0154 5.78255 72.0823 5.79398 72.148C5.82502 72.3278 5.88605 72.5025 5.97506 72.6662L5.98744 72.9983C6.00424 72.9519 5.98259 73.0296 5.98817 73.0616C5.98846 73.1095 5.99298 73.1574 6.0017 73.2047C6.02213 73.3147 6.0564 73.4223 6.10388 73.5254C6.20898 73.7564 6.34569 73.975 6.51089 74.1762L6.54098 74.6419C6.55134 74.6262 6.55982 74.6096 6.5663 74.5923C6.56768 74.5871 6.5681 74.588 6.5681 74.588C6.56818 74.5931 6.56766 74.5981 6.56655 74.603C6.56708 74.6273 6.5691 74.6515 6.5726 74.6755C6.58753 74.7458 6.61042 74.8145 6.64091 74.8807C6.71871 75.0423 6.81505 75.1964 6.9284 75.3404C7.04955 75.4971 7.18124 75.6472 7.32274 75.7897C7.46423 75.9349 7.64439 76.0886 7.80332 76.2376L9.77063 78.0389L13.7055 81.6419L21.5717 88.853L21.5838 88.8641C21.5926 88.8722 21.6008 88.8808 21.6084 88.8898C22.2762 89.6903 22.9021 90.5015 23.4977 91.3409C24.1081 92.18 24.6418 93.0613 25.0938 93.9764C25.3113 94.3848 25.6081 94.7556 25.9707 95.0717C27.134 96.048 28.6263 96.6553 30.2164 96.7994C31.2724 96.8846 32.3324 96.6802 33.2543 96.2135L33.5976 96.0355L33.9066 95.8114C34.1111 95.6653 34.3209 95.5114 34.5373 95.3439C34.7448 95.1748 34.9669 95.0206 35.2017 94.8827C35.4277 94.7344 35.6661 94.6017 35.9148 94.4858C37.8955 93.5451 40.186 93.2592 42.3806 93.6788C40.2033 93.367 37.9719 93.7302 36.0591 94.7078C35.8242 94.8271 35.6002 94.9625 35.3889 95.1127C35.1693 95.2522 34.9625 95.4072 34.7706 95.5761C34.5776 95.7368 34.3694 95.9024 34.1516 96.0713L33.8294 96.322L33.4676 96.5274C32.4856 97.0739 31.3355 97.3313 30.1802 97.2633C29.0342 97.1927 27.9214 96.8898 26.9268 96.3777C25.8784 95.8971 25.0218 95.1403 24.4735 94.2104C24.0142 93.3379 23.4773 92.4994 22.8682 91.703C22.2659 90.8954 21.6221 90.1011 20.9559 89.3399L20.9925 89.3766L13.0428 82.2149L9.06965 78.6315L7.08299 76.8397C6.91662 76.6858 6.75368 76.5512 6.5845 76.3815C6.41247 76.2112 6.25237 76.0316 6.10513 75.8437C5.94695 75.6449 5.81525 75.4303 5.71269 75.2044C5.65547 75.0759 5.61409 74.9422 5.58924 74.8057C5.57677 74.7258 5.57189 74.6452 5.57466 74.5646C5.57736 74.5173 5.58358 74.4701 5.59327 74.4235C5.59855 74.3962 5.60576 74.3693 5.61485 74.3428C5.62812 74.2999 5.6467 74.2586 5.67026 74.2194L5.70034 74.6849C5.48979 74.4229 5.31654 74.1387 5.18458 73.8387C5.11296 73.6766 5.06184 73.508 5.03215 73.3358C5.01608 73.2421 5.00847 73.1474 5.00938 73.0526C5.00778 72.9305 5.02911 72.809 5.0725 72.6931L5.0849 73.025C4.95535 72.7785 4.86904 72.5159 4.82899 72.2461C4.80616 72.0868 4.81327 71.9252 4.85003 71.7679C4.87164 71.6766 4.90634 71.5882 4.95328 71.5047C4.97964 71.4582 5.01011 71.4136 5.04444 71.3714C5.09195 71.3126 5.14898 71.2604 5.21368 71.2166L5.04963 71.7217C4.9124 71.4125 4.84382 71.0826 4.84768 70.7502C4.85213 70.5792 4.87885 70.4093 4.92727 70.2438C4.97777 70.0625 5.0605 69.8895 5.17235 69.7315L5.10154 70.0672C5.07714 69.9375 5.05104 69.8101 5.03271 69.6777C5.01986 69.5259 5.03083 69.3733 5.0653 69.2242C5.10237 69.0376 5.20101 68.8651 5.34865 68.7287C5.49629 68.5923 5.68621 68.4983 5.89416 68.4585C6.20994 68.4021 6.536 68.4105 6.8476 68.483C7.12228 68.5405 7.38991 68.622 7.64659 68.7263C7.66932 68.7354 7.691 68.7463 7.71131 68.7592L7.71836 68.7638L15.5885 73.7955L19.5083 76.3287C20.1551 76.7541 20.8238 77.1718 21.4526 77.6036L22.4066 78.2481C22.7227 78.466 23.0746 78.6317 23.407 78.8265C24.7605 79.5788 26.1874 80.2208 27.6704 80.7448C30.6713 81.7669 33.8036 82.4515 36.9948 82.7827C38.5942 82.9594 40.2042 83.0487 41.8159 83.0502Z" fill="#020202"/>
<path d="M5.7793 70.219C5.85689 70.1105 5.95672 70.058 6.05711 70.0729C6.1572 70.0809 6.25484 70.1279 6.34237 70.2102C6.4282 70.2877 6.50625 70.3874 6.57365 70.5059C6.60507 70.5676 6.63784 70.6261 6.66716 70.6891C6.69256 70.7588 6.72079 70.8227 6.74249 70.8954C6.57922 70.7248 6.43882 70.535 6.28253 70.4019C6.20726 70.3308 6.12712 70.2755 6.0439 70.2373C5.95765 70.1975 5.86718 70.1913 5.7793 70.219Z" fill="#020202"/>
<path d="M4.81592 71.9188C4.83054 71.8224 4.93817 71.762 5.03328 71.7345C5.13107 71.7163 5.23129 71.7134 5.33004 71.726C5.51885 71.7516 5.70178 71.8078 5.87106 71.8921C6.20392 72.0511 6.50017 72.2726 6.74231 72.5435C6.57041 72.4829 6.40232 72.4128 6.23891 72.3335L5.76152 72.1069C5.6083 72.0306 5.45045 71.9631 5.28882 71.9049C5.21146 71.8753 5.1299 71.8569 5.04687 71.8505C5.00549 71.8431 4.96287 71.8455 4.92265 71.8574C4.88243 71.8693 4.84582 71.8904 4.81592 71.9188Z" fill="#020202"/>
<path d="M5.7793 72.9301C5.84827 72.7585 5.93872 72.6364 6.03909 72.5795C6.13945 72.5226 6.24518 72.5335 6.34276 72.6106C6.53851 72.7188 6.72339 72.9075 6.88785 73.1668C7.05089 73.4111 7.20141 73.6942 7.33674 74.011C7.47399 74.3194 7.59754 74.6564 7.70569 75.0174C7.53997 74.7802 7.3941 74.5047 7.23955 74.2559C7.08701 74.0028 6.93753 73.7462 6.78156 73.5191C6.63154 73.2822 6.47042 73.082 6.30102 72.922C6.21875 72.8428 6.13073 72.7973 6.04118 72.7874C5.94898 72.7625 5.85585 72.8133 5.7793 72.9301Z" fill="#020202"/>
<path d="M5.7793 75.2612C5.78049 75.2212 5.7955 75.182 5.82302 75.1471C5.85053 75.1122 5.88968 75.0828 5.93699 75.0613C6.04059 75.0213 6.16016 75.0077 6.27603 75.0227C6.48889 75.0501 6.68997 75.1123 6.86351 75.2045C7.20077 75.3749 7.48708 75.5916 7.70569 75.8419C7.52517 75.7672 7.37206 75.6742 7.20775 75.5926C7.04648 75.5087 6.89117 75.4213 6.72975 75.3448C6.57893 75.2643 6.41357 75.1988 6.23816 75.1499C6.15661 75.1214 6.06256 75.1171 5.97657 75.1379C5.89059 75.1588 5.81966 75.2031 5.7793 75.2612Z" fill="#020202"/>
<path d="M37.3346 93.413C36.0315 93.6598 34.853 94.2622 33.9706 95.1323C30.6689 97.9602 25.5099 95.6261 24.5297 93.6062C23.5495 91.5862 21.0732 88.8033 21.0732 88.8033C20.4823 88.2967 19.6888 87.6041 18.7824 86.8069C22.3554 84.1822 21.1481 78.0635 21.1481 78.0635C18.6951 73.9372 12.8851 72.9074 12.8851 72.9074C13.622 78.0485 10.6122 79.5459 10.612 79.546C8.53521 77.6894 7.015 76.3246 7.015 76.3246C5.80265 75.1576 6.11217 74.6638 6.11217 74.6638C5.31252 73.6763 5.5447 73.1376 5.5447 73.1376C5.05461 72.195 5.51377 71.9033 5.51377 71.9033C5.38544 71.6611 5.32448 71.3961 5.33582 71.1297C5.34717 70.8632 5.43051 70.6028 5.57908 70.3696L5.5447 70.0704L1.28953 73.5616C0.743289 74.0094 0.348658 74.579 0.148555 75.2084C-0.051548 75.8378 -0.0494612 76.5029 0.154595 77.1313C1.24387 80.4879 4.23724 86.7253 11.7355 88.534C11.7355 88.534 21.6407 92.9329 14.1086 95.7159L24.4265 104.693C24.4265 104.693 24.8565 102.823 26.7911 102.407C28.5842 101.997 30.1748 101.09 31.3219 99.8226C31.7291 99.3846 32.1708 98.8732 32.6441 98.2768C33.3623 97.3609 34.2114 96.5281 35.171 95.7984C36.0199 95.1604 36.9657 94.6049 37.5647 94.7284L37.3346 93.413Z" fill="#020202"/>
<path d="M35.6382 82.4355C35.6382 82.4355 35.6382 82.7353 35.6382 83.2607" stroke="#020202" stroke-width="1.68761" stroke-linecap="round" stroke-linejoin="round"/>
<path d="M34.3284 84.0843C33.5898 86.4122 32.7927 90.907 36.6015 93.1522" stroke="#020202" stroke-width="1.68761" stroke-linecap="round" stroke-linejoin="round" stroke-dasharray="2.15 2.15"/>
<path d="M36.6016 93.1518C36.9029 93.1518 37.2248 93.1518 37.5648 93.1518" stroke="#020202" stroke-width="1.68761" stroke-linecap="round" stroke-linejoin="round"/>
<path d="M101.136 16.4875C101.272 16.2153 101.45 15.9694 101.661 15.7598C101.868 15.5463 102.099 15.3608 102.348 15.2074C102.603 15.0558 102.877 14.945 103.161 14.8786C103.448 14.8145 103.744 14.827 104.025 14.915C103.764 14.9985 103.506 15.0965 103.254 15.2085C103.014 15.3291 102.778 15.4525 102.548 15.5933C102.082 15.8712 101.638 16.1889 101.136 16.4875Z" fill="#020202"/>
<path d="M103.062 18.1366C103.32 18.1329 103.565 18.0878 103.745 18.0108C103.925 17.9339 104.025 17.8311 104.025 17.7241C104.025 17.617 103.925 17.5142 103.745 17.4373C103.565 17.3603 103.32 17.3152 103.062 17.3115C102.803 17.3152 102.558 17.3603 102.379 17.4373C102.199 17.5142 102.099 17.617 102.099 17.7241C102.099 17.8311 102.199 17.9339 102.379 18.0108C102.558 18.0878 102.803 18.1329 103.062 18.1366Z" fill="#020202"/>
<path d="M109.805 16.7648C110.064 16.8743 110.359 16.9571 110.674 17.0089C110.793 17.0042 110.783 17.0077 110.836 16.9564C110.87 16.9311 110.896 16.9032 110.914 16.8737C110.945 16.8382 110.967 16.8005 110.978 16.7616C111.028 16.6783 111.065 16.5929 111.089 16.5064C111.139 16.4199 111.148 16.3253 111.191 16.2334C111.256 16.0397 111.349 15.8492 111.471 15.6636C111.609 15.851 111.692 16.0492 111.715 16.2506C111.753 16.4567 111.722 16.6648 111.623 16.8649C111.597 16.9204 111.559 16.974 111.508 17.0243C111.432 17.1184 111.308 17.1992 111.152 17.2577C111.081 17.2766 111.008 17.2927 110.933 17.3057C110.792 17.3211 110.645 17.3112 110.515 17.2776C110.318 17.2278 110.153 17.1481 110.039 17.0483C109.93 16.962 109.851 16.866 109.805 16.7648Z" fill="#020202"/>
<path d="M109.05 15.6633C108.918 15.3446 108.847 14.9912 108.844 14.6318C108.823 14.2283 108.922 13.8292 109.123 13.5131C109.254 13.3408 109.428 13.2287 109.616 13.1946C109.783 13.1758 109.951 13.2091 110.105 13.2916C110.239 13.3687 110.365 13.4653 110.481 13.5794C110.585 13.7012 110.681 13.8338 110.768 13.9759C110.632 13.9487 110.498 13.9104 110.366 13.8612C110.238 13.8319 110.114 13.7964 110 13.7775C109.913 13.7503 109.822 13.7514 109.735 13.7807C109.648 13.8101 109.568 13.8666 109.503 13.9451C109.372 14.1645 109.283 14.4182 109.241 14.6872L109.05 15.6633Z" fill="#020202"/>
<path d="M102.099 22.1059C102.255 21.967 102.423 21.852 102.597 21.7631C102.671 21.7244 102.74 21.6839 102.811 21.6401C102.893 21.5818 102.972 21.5123 103.044 21.4326C103.062 21.5109 103.066 21.5938 103.057 21.6748C103.047 21.7558 103.024 21.8325 102.989 21.8988C102.921 22.0297 102.828 22.1306 102.72 22.1896C102.619 22.2444 102.511 22.2666 102.403 22.2545C102.293 22.2468 102.188 22.1952 102.099 22.1059Z" fill="#020202"/>
<path d="M103.062 23.032C104.149 22.7233 105.293 22.4674 106.479 22.2677C106.539 22.2569 106.603 22.255 106.665 22.2622C106.727 22.2694 106.783 22.2854 106.826 22.3082C106.87 22.331 106.899 22.3596 106.91 22.3906C106.921 22.4215 106.914 22.4534 106.889 22.4822C106.637 22.7819 106.329 23.0689 105.967 23.3394C105.784 23.4776 105.573 23.6061 105.337 23.723C105.213 23.7835 105.072 23.8346 104.918 23.8747C104.836 23.8951 104.745 23.9062 104.653 23.9071C104.609 23.9053 104.566 23.8991 104.526 23.8889C104.487 23.8786 104.452 23.8645 104.425 23.8474C104.491 23.8629 104.566 23.8666 104.638 23.8577C104.709 23.8489 104.772 23.828 104.816 23.7988C104.92 23.7452 105.011 23.6853 105.085 23.6205C105.244 23.4883 105.389 23.352 105.52 23.2121C105.783 22.9313 106.043 22.6432 106.285 22.3586L106.695 22.5731C105.517 22.7837 104.3 22.9373 103.062 23.032Z" fill="#020202"/>
<path d="M146.406 100.572C146.665 100.568 146.909 100.523 147.089 100.446C147.269 100.369 147.369 100.267 147.369 100.16C147.369 100.053 147.269 99.9497 147.089 99.8728C146.909 99.7958 146.665 99.7507 146.406 99.747C146.148 99.7507 145.903 99.7958 145.723 99.8728C145.543 99.9497 145.443 100.053 145.443 100.16C145.443 100.267 145.543 100.369 145.723 100.446C145.903 100.523 146.148 100.568 146.406 100.572Z" fill="#020202"/>
<path d="M149.777 99.7477C149.906 99.744 150.029 99.6989 150.119 99.622C150.208 99.545 150.259 99.4422 150.259 99.3351C150.259 99.2281 150.208 99.1253 150.119 99.0483C150.029 98.9714 149.906 98.9263 149.777 98.9226C149.648 98.9263 149.525 98.9714 149.435 99.0483C149.346 99.1253 149.295 99.2281 149.295 99.3351C149.295 99.4422 149.346 99.545 149.435 99.622C149.525 99.6989 149.648 99.744 149.777 99.7477Z" fill="#020202"/>
<path d="M154.593 98.0988C154.723 98.0951 154.845 98.05 154.935 97.9731C155.025 97.8961 155.075 97.7933 155.075 97.6863C155.075 97.5793 155.025 97.4765 154.935 97.3995C154.845 97.3226 154.723 97.2775 154.593 97.2738C154.464 97.2775 154.342 97.3226 154.252 97.3995C154.162 97.4765 154.112 97.5793 154.112 97.6863C154.112 97.7933 154.162 97.8961 154.252 97.9731C154.342 98.05 154.464 98.0951 154.593 98.0988Z" fill="#020202"/>
<path d="M159.409 97.2751C159.539 97.2677 159.661 97.1776 159.751 97.0238C159.841 96.8699 159.891 96.6644 159.891 96.4505C159.891 96.2366 159.841 96.031 159.751 95.8772C159.661 95.7234 159.539 95.6333 159.409 95.6259C159.28 95.6333 159.158 95.7234 159.068 95.8772C158.978 96.031 158.928 96.2366 158.928 96.4505C158.928 96.6644 158.978 96.8699 159.068 97.0238C159.158 97.1776 159.28 97.2677 159.409 97.2751Z" fill="#020202"/>
<path d="M163.743 97.2751C164.002 97.2677 164.247 97.1776 164.427 97.0238C164.606 96.8699 164.707 96.6644 164.707 96.4505C164.707 96.2366 164.606 96.031 164.427 95.8772C164.247 95.7234 164.002 95.6333 163.743 95.6259C163.485 95.6333 163.24 95.7234 163.06 95.8772C162.881 96.031 162.78 96.2366 162.78 96.4505C162.78 96.6644 162.881 96.8699 163.06 97.0238C163.24 97.1776 163.485 97.2677 163.743 97.2751Z" fill="#020202"/>
<path d="M167.596 98.0996C167.855 98.0885 168.1 97.9533 168.28 97.7226C168.459 97.4918 168.56 97.1836 168.56 96.8627C168.56 96.5419 168.459 96.2336 168.28 96.0029C168.1 95.7721 167.855 95.637 167.596 95.6259C167.338 95.637 167.093 95.7721 166.913 96.0029C166.734 96.2336 166.633 96.5419 166.633 96.8627C166.633 97.1836 166.734 97.4918 166.913 97.7226C167.093 97.9533 167.338 98.0885 167.596 98.0996Z" fill="#020202"/>
</g>
</svg>
