<svg width="17" height="4" viewBox="0 0 17 4" fill="none" xmlns="http://www.w3.org/2000/svg">
<path opacity="0.4" d="M2.03198 0C0.931982 0 0.0319824 0.9 0.0319824 2C0.0319824 3.1 0.931982 4 2.03198 4C3.13198 4 4.03198 3.1 4.03198 2C4.03198 0.9 3.13198 0 2.03198 0ZM14.032 0C12.932 0 12.032 0.9 12.032 2C12.032 3.1 12.932 4 14.032 4C15.132 4 16.032 3.1 16.032 2C16.032 0.9 15.132 0 14.032 0ZM8.03198 0C6.93198 0 6.03198 0.9 6.03198 2C6.03198 3.1 6.93198 4 8.03198 4C9.13198 4 10.032 3.1 10.032 2C10.032 0.9 9.13198 0 8.03198 0Z" fill="black"/>
</svg>
