<svg width="17" height="17" viewBox="0 0 17 17" fill="none" xmlns="http://www.w3.org/2000/svg">
<path d="M8.77604 0C4.28219 0 0.63501 3.64718 0.63501 8.14103C0.63501 12.6349 4.28219 16.2821 8.77604 16.2821C13.2699 16.2821 16.9171 12.6349 16.9171 8.14103C16.9171 3.64718 13.2699 0 8.77604 0ZM4.76251 13.2536C5.11258 12.5209 7.24553 11.8045 8.77604 11.8045C10.3066 11.8045 12.4476 12.5209 12.7896 13.2536C11.6824 14.1328 10.2903 14.6539 8.77604 14.6539C7.26181 14.6539 5.86969 14.1328 4.76251 13.2536ZM13.9537 12.0731C12.7896 10.6566 9.96463 10.1763 8.77604 10.1763C7.58745 10.1763 4.76251 10.6566 3.59834 12.0731C2.76796 10.9822 2.26322 9.6227 2.26322 8.14103C2.26322 4.55084 5.18585 1.62821 8.77604 1.62821C12.3662 1.62821 15.2889 4.55084 15.2889 8.14103C15.2889 9.6227 14.7841 10.9822 13.9537 12.0731ZM8.77604 3.25641C7.19668 3.25641 5.92668 4.52641 5.92668 6.10577C5.92668 7.68513 7.19668 8.95513 8.77604 8.95513C10.3554 8.95513 11.6254 7.68513 11.6254 6.10577C11.6254 4.52641 10.3554 3.25641 8.77604 3.25641ZM8.77604 7.32693C8.10033 7.32693 7.55488 6.78148 7.55488 6.10577C7.55488 5.43007 8.10033 4.88462 8.77604 4.88462C9.45175 4.88462 9.99719 5.43007 9.99719 6.10577C9.99719 6.78148 9.45175 7.32693 8.77604 7.32693Z" fill="#A3A3A3"/>
</svg>
